<?xml version="1.0" encoding="UTF-8"?>
<svg version="1.1" xmlns="http://www.w3.org/2000/svg" width="651" height="413">
<path d="M0 0 C214.83 0 429.66 0 651 0 C651 136.29 651 272.58 651 413 C436.17 413 221.34 413 0 413 C0 276.71 0 140.42 0 0 Z " fill="#ECEDED" transform="translate(0,0)"/>
<path d="M0 0 C214.83 0 429.66 0 651 0 C651 136.29 651 272.58 651 413 C436.17 413 221.34 413 0 413 C0 276.71 0 140.42 0 0 Z M9 9 C7.58369202 11.83261595 7.87594091 14.19881599 7.87695217 17.36810493 C7.87579843 18.03249779 7.87464468 18.69689064 7.87345598 19.38141661 C7.87078979 21.62841735 7.87531049 23.87534781 7.87974548 26.12234497 C7.87930839 27.73707089 7.87843207 29.35179674 7.87715149 30.96652222 C7.87489846 35.42957728 7.8789356 39.89260855 7.88392727 44.35566059 C7.88827754 49.23265078 7.88683375 54.10963979 7.88610935 58.98663139 C7.88557653 68.46427911 7.89020516 77.9419174 7.89661068 87.41956269 C7.90379519 98.37663323 7.90460458 109.33369806 7.90539551 120.29077148 C7.91065132 149.23551582 7.92461235 178.18025805 7.9375 207.125 C7.958125 271.76375 7.97875 336.4025 8 403 C324.8 403.495 324.8 403.495 648 404 C648 403.01 648 402.02 648 401 C646.68 400.67 645.36 400.34 644 400 C643.67 270.97 643.34 141.94 643 9 C433.78 9 224.56 9 9 9 Z " fill="#D7DBE4" transform="translate(0,0)"/>
<path d="M0 0 C13.36018801 10.04120057 22.95319334 21.15424539 28.09765625 37.328125 C28.41734375 38.29492188 28.73703125 39.26171875 29.06640625 40.2578125 C33.90621106 56.79381226 31.1643751 74.11162053 23.28515625 89.265625 C19.95392484 94.83786664 16.33074498 100.39905546 12.09765625 105.328125 C11.43765625 105.328125 10.77765625 105.328125 10.09765625 105.328125 C10.09765625 105.988125 10.09765625 106.648125 10.09765625 107.328125 C7.62287637 109.56689045 4.82192997 111.40564422 2.09765625 113.328125 C1.03417969 114.11316406 1.03417969 114.11316406 -0.05078125 114.9140625 C-13.44325434 124.43867333 -29.80707035 126.96219569 -45.90234375 125.328125 C-66.53371862 121.51966553 -82.19162784 109.55982253 -94.33984375 92.890625 C-97.74892806 87.46752834 -99.32295051 81.48623998 -100.90234375 75.328125 C-101.12921875 74.54050781 -101.35609375 73.75289063 -101.58984375 72.94140625 C-105.90834143 55.75738424 -103.02315989 37.5597206 -94.15234375 22.390625 C-83.86320292 7.00481479 -69.51125908 -4.90988023 -51.18481445 -9.27270508 C-33.72155607 -12.32676727 -14.80580736 -9.90723169 0 0 Z " fill="#4B649B" transform="translate(357.90234375,70.671875)"/>
<path d="M0 0 C0 15.84 0 31.68 0 48 C15.51 48 31.02 48 47 48 C47 54.77354143 46.98586958 60.46861401 46 67 C45.34 67 44.68 67 44 67 C43.649375 68.258125 43.29875 69.51625 42.9375 70.8125 C39.71602282 80.37155612 34.08980594 88.03826681 26 94 C25.38511719 94.46019531 24.77023437 94.92039062 24.13671875 95.39453125 C13.94191827 102.38103013 4.49705315 103 -8 103 C-8 86.5 -8 70 -8 53 C-23.51 53 -39.02 53 -55 53 C-55 36.74272355 -53.48226628 27.84723584 -43 16 C-37.32157491 10.60260323 -31.34970281 5.8367274 -24 3 C-22.89978516 2.55527344 -22.89978516 2.55527344 -21.77734375 2.1015625 C-13.98768485 -0.65964992 -9.00948135 0 0 0 Z " fill="#ECECEC" transform="translate(326,77)"/>
<path d="M0 0 C0.33 0 0.66 0 1 0 C1 130.35 1 260.7 1 395 C210.22 395 419.44 395 635 395 C633 397 633 397 631.16010237 397.24724633 C630.03021163 397.24529406 630.03021163 397.24529406 628.87749481 397.24330235 C628.00883081 397.24666774 627.14016681 397.25003314 626.24517965 397.25350052 C625.28508946 397.24699272 624.32499927 397.24048492 623.33581543 397.23377991 C622.32027415 397.23478319 621.30473287 397.23578647 620.25841761 397.23682016 C616.83300922 397.23777776 613.4078028 397.22439522 609.98242188 397.21118164 C607.53532981 397.20898182 605.0882368 397.20767524 602.6411438 397.2071991 C597.35913803 397.20425863 592.07719508 397.19523954 586.79521179 397.18089485 C579.14741645 397.16022502 571.49964366 397.15153457 563.8518241 397.1459735 C551.43017238 397.13670879 539.00854693 397.11924488 526.58691406 397.09594727 C525.84301448 397.09455395 525.09911489 397.09316064 524.33267289 397.0917251 C523.58788232 397.09032957 522.84309174 397.08893404 522.07573175 397.08749622 C511.53584206 397.0677628 500.99595151 397.04991969 490.45605469 397.03442383 C489.71548527 397.03333298 488.97491586 397.03224213 488.21190494 397.03111822 C475.84720101 397.01307097 463.48249439 396.99911709 451.11778307 396.98725218 C443.49404055 396.97967455 435.87032458 396.96794653 428.24659747 396.95079052 C422.39601903 396.93781244 416.5454406 396.92977495 410.69485092 396.92347908 C408.2995611 396.9200157 405.90427305 396.91480943 403.50899124 396.90771103 C400.23266638 396.8982178 396.95639056 396.89497798 393.68005371 396.89320374 C392.26668708 396.88678811 392.26668708 396.88678811 390.82476759 396.88024288 C386.57331478 396.88386404 382.42272333 397.01933526 378.19735813 397.50195217 C371.85502691 398.19751978 365.53576238 398.11325228 359.16221619 398.07556152 C357.78074115 398.07114343 356.39926459 398.06718341 355.01778704 398.06363821 C351.24555942 398.05266504 347.47338475 398.03530349 343.70118725 398.01686358 C339.62429111 397.99808405 335.54737555 397.98533448 331.47045898 397.97187805 C324.41463162 397.9478144 317.35882636 397.9200933 310.30302238 397.88996887 C300.10053993 397.84650285 289.89804158 397.8097124 279.69552691 397.77472824 C263.13953306 397.71787082 246.58355606 397.65714325 230.02758789 397.59326172 C229.0376305 397.58944329 228.0476731 397.58562487 227.027717 397.58169073 C221.00425717 397.55843698 214.9807977 397.53509231 208.95733833 397.5117178 C199.90458349 397.47659064 190.85182829 397.44156025 181.79907227 397.40673828 C180.31185693 397.4010156 180.31185693 397.4010156 178.79459684 397.3951773 C162.28819638 397.33178507 145.78178403 397.27230437 129.27535921 397.2156148 C119.09142043 397.18044558 108.90750709 397.14168245 98.72359974 397.09834158 C91.75701977 397.06891244 84.79043263 397.04297654 77.82382893 397.01984203 C73.7994149 397.00634836 69.77502479 396.99115615 65.75063515 396.97162819 C62.07296356 396.95380742 58.39530559 396.9405176 54.71760351 396.93095618 C52.74442443 396.92459796 50.77126346 396.91324023 48.79810756 396.9017539 C47.64231278 396.89964486 46.48651799 396.89753581 45.29569912 396.89536285 C44.28992461 396.8914033 43.28415009 396.88744374 42.24789757 396.8833642 C40.02988802 396.74693973 40.02988802 396.74693973 39 398 C36.11378455 398.01697886 33.25446632 397.97084007 30.37109375 397.87890625 C29.50686295 397.85529526 28.64263214 397.83168427 27.75221252 397.80735779 C24.98048252 397.73052738 22.20901845 397.64658704 19.4375 397.5625 C17.56316424 397.50929868 15.68881533 397.45655818 13.81445312 397.40429688 C9.20946568 397.27488618 4.60470463 397.13909684 0 397 C-1.89061309 392.99375014 -2.24564983 389.82215825 -2.2332716 385.41003704 C-2.23419051 384.7583291 -2.23510942 384.10662115 -2.23605618 383.43516448 C-2.23667813 381.2481301 -2.22293479 379.06142381 -2.20927429 376.87443542 C-2.20673198 375.29189949 -2.20507096 373.70936194 -2.2042163 372.1268242 C-2.19929322 367.7753044 -2.18178871 363.4239116 -2.1622473 359.07243621 C-2.14335743 354.38045491 -2.13605802 349.68845389 -2.12731934 344.9964447 C-2.10835019 335.80283361 -2.07862116 326.60928703 -2.04527863 317.41571804 C-2.0068486 306.71121244 -1.97895412 296.00668726 -1.95149157 285.30214886 C-1.90212048 266.20132193 -1.84303907 247.10053725 -1.77856445 227.99975586 C-1.7160035 209.46363886 -1.6604034 190.92751831 -1.61254883 172.39135742 C-1.60960179 171.25018796 -1.60665475 170.1090185 -1.60361841 168.93326815 C-1.59920641 167.22448187 -1.59920641 167.22448187 -1.59470528 165.48117465 C-1.54018457 144.38532567 -1.47922186 123.2894996 -1.4151988 102.19367745 C-1.39269627 94.73187144 -1.37208511 87.27006154 -1.3520565 79.80824852 C-1.32751084 70.71256537 -1.29924518 61.61690214 -1.26635798 52.5212452 C-1.24964552 47.88033657 -1.23446229 43.23943683 -1.22349739 38.59851074 C-1.21340216 34.34908121 -1.19877436 30.09969216 -1.18054125 25.85028998 C-1.1747306 24.31397357 -1.17055654 22.77764991 -1.16819557 21.24132433 C-1.15635368 14.09907057 -1.14099602 7.0680362 0 0 Z " fill="#B6B8BC" transform="translate(7,8)"/>
<path d="M0 0 C2.09853645 -0.00115439 4.19707269 -0.00274405 6.29560852 -0.00472724 C12.025747 -0.00887955 17.7558687 -0.00684818 23.48600721 -0.00374103 C29.68530354 -0.00146925 35.88459706 -0.00497613 42.08389282 -0.00772095 C53.53419833 -0.01190807 64.98449643 -0.01154729 76.43480189 -0.00880948 C87.06444531 -0.0062812 97.69408681 -0.00564297 108.32373047 -0.00683212 C109.38669228 -0.0069467 109.38669228 -0.0069467 110.47112808 -0.00706359 C113.34953463 -0.00737505 116.22794118 -0.00769346 119.10634772 -0.00802336 C146.12878459 -0.01108306 173.15121814 -0.00831259 200.1736545 -0.00292646 C223.95545247 0.00177806 247.73724506 0.00142956 271.51904297 -0.00338745 C298.37530029 -0.00880927 325.23155463 -0.01082527 352.08781242 -0.00777519 C354.98540115 -0.00745464 357.88298988 -0.00714179 360.78057861 -0.00683212 C361.49376655 -0.00675305 362.20695449 -0.00667397 362.94175418 -0.00659249 C372.79804504 -0.00555071 382.65433394 -0.00642405 392.51062454 -0.00881899 C446.1004421 -0.02163063 499.68809042 0.00804486 553.27574539 0.54135218 C556.44316928 0.57254692 559.61060468 0.60220473 562.77804565 0.63160872 C567.63872817 0.67740408 572.49931845 0.72876191 577.35988998 0.78509936 C579.12535814 0.80500509 580.89084437 0.82337462 582.65634537 0.84011617 C585.04336017 0.86329363 587.43021668 0.8926082 589.81713867 0.923769 C590.86348811 0.93208924 590.86348811 0.93208924 591.93097591 0.94057756 C596.67598021 1.01258117 596.67598021 1.01258117 598.90478516 2.12698364 C598.90478516 21.92698364 598.90478516 41.72698364 598.90478516 62.12698364 C598.57478516 62.12698364 598.24478516 62.12698364 597.90478516 62.12698364 C597.90478516 42.65698364 597.90478516 23.18698364 597.90478516 3.12698364 C388.68478516 3.12698364 179.46478516 3.12698364 -36.09521484 3.12698364 C-36.42521484 3.78698364 -36.75521484 4.44698364 -37.09521484 5.12698364 C-37.09521484 3.80698364 -37.09521484 2.48698364 -37.09521484 1.12698364 C-24.71491877 0.16521292 -12.41237899 -0.01499596 0 0 Z " fill="#D5D6D7" transform="translate(45.09521484375,5.873016357421875)"/>
<path d="M0 0 C0.87914062 0.00902344 1.75828125 0.01804688 2.6640625 0.02734375 C4.8178271 0.05075423 6.97145014 0.0866199 9.125 0.125 C8.75676001 7.03267437 7.88581837 12.7631142 5.125 19.125 C4.465 19.125 3.805 19.125 3.125 19.125 C2.88652344 19.84300781 2.64804687 20.56101563 2.40234375 21.30078125 C0.92855024 24.55935223 -0.89310846 26.68652658 -3.3125 29.3125 C-4.09496094 30.17230469 -4.87742187 31.03210938 -5.68359375 31.91796875 C-7.875 34.125 -7.875 34.125 -10.875 36.125 C-11.865 36.125 -12.855 36.125 -13.875 36.125 C-13.875 36.785 -13.875 37.445 -13.875 38.125 C-17.56783237 40.82014407 -21.1292523 41.85710226 -25.5625 42.8125 C-26.70074219 43.06386719 -27.83898437 43.31523437 -29.01171875 43.57421875 C-31.875 44.125 -31.875 44.125 -33.875 44.125 C-34.66193231 19.26376805 -34.66193231 19.26376805 -25.875 9.125 C-25.215 9.125 -24.555 9.125 -23.875 9.125 C-23.875 8.465 -23.875 7.805 -23.875 7.125 C-22.3359375 5.90625 -22.3359375 5.90625 -20.25 4.625 C-19.57710938 4.2021875 -18.90421875 3.779375 -18.2109375 3.34375 C-12.06578974 0.13758595 -6.78268733 -0.13279358 0 0 Z " fill="#E1CA6B" transform="translate(359.875,132.875)"/>
<path d="M0 0 C0.82509744 11.43676731 -1.66598185 22.91978706 -9 32 C-12.28125 35 -12.28125 35 -15 35 C-15 35.66 -15 36.32 -15 37 C-15.66 37 -16.32 37 -17 37 C-17 37.66 -17 38.32 -17 39 C-26.49613298 42.02149686 -35.16256984 42.33706931 -45 42 C-43.58489812 29.93359367 -39.05753065 18.72209853 -29.5 10.9375 C-20.3814139 4.55448973 -11.22318965 0 0 0 Z " fill="#E2CA6C" transform="translate(319,80)"/>
<path d="M0 0 C17.12121212 0 17.12121212 0 23 5 C23.99 5.66 24.98 6.32 26 7 C26.474375 6.030625 26.94875 5.06125 27.4375 4.0625 C29 1 29 1 30 0 C32.31 0 34.62 0 37 0 C37 10.89 37 21.78 37 33 C34.69 33 32.38 33 30 33 C30 33.66 30 34.32 30 35 C29.34 35 28.68 35 28 35 C28 34.34 28 33.68 28 33 C27.43152344 33.12761719 26.86304688 33.25523437 26.27734375 33.38671875 C23.52135895 33.74099392 21.68143991 33.79117446 19 33 C16.7923838 30.348248 15.27306276 27.6700772 13.703125 24.6015625 C11.98958081 21.44154593 11.98958081 21.44154593 7 20 C7 24.29 7 28.58 7 33 C4.69 33 2.38 33 0 33 C0 22.11 0 11.22 0 0 Z " fill="#E2E4E7" transform="translate(439,224)"/>
<path d="M0 0 C5.52030501 0.05257433 10.12069391 3.04042295 14.3125 6.4375 C17.71808838 11.3191948 16.97349815 17.78458873 16.3125 23.4375 C14.61884995 27.89089231 12.14507246 29.93142654 8.125 32.375 C1.98304987 34.08669102 -3.25676438 34.65286781 -9.0625 31.75 C-13.91346781 27.47652835 -16.49977289 24.25340658 -16.9375 17.6875 C-16.84365434 12.0046238 -14.9227464 7.93279827 -11.3125 3.5625 C-7.48672004 0.46544003 -4.78931947 0.56822434 0 0 Z " fill="#556CA1" transform="translate(223.6875,223.5625)"/>
<path d="M0 0 C2.248125 -0.04125 4.49625 -0.0825 6.8125 -0.125 C8.07707031 -0.14820313 9.34164062 -0.17140625 10.64453125 -0.1953125 C14 0 14 0 17 2 C17.33 1.34 17.66 0.68 18 0 C19.91541138 -0.10841951 21.83259773 -0.18578079 23.75 -0.25 C25.35101563 -0.31960938 25.35101563 -0.31960938 26.984375 -0.390625 C30 0 30 0 32.3671875 1.83203125 C34.56674897 4.75250162 34.43923095 6.41294721 34 10 C33.5875 10.825 33.175 11.65 32.75 12.5 C32.5025 13.325 32.255 14.15 32 15 C33.80132223 18.20212693 33.80132223 18.20212693 36 21 C36 21.66 36 22.32 36 23 C33.8125 22.9375 33.8125 22.9375 31 22 C29.51728618 20.28561215 28.31959171 18.51127281 27.11328125 16.59375 C26.07639069 14.83938228 26.07639069 14.83938228 24 14 C24 16.97 24 19.94 24 23 C16.08 23 8.16 23 0 23 C0 15.41 0 7.82 0 0 Z " fill="#EAEBED" transform="translate(234,271)"/>
<path d="M0 0 C0.061875 0.61875 0.12375 1.2375 0.1875 1.875 C0.80224019 4.15996351 0.80224019 4.15996351 2.9375 5.09375 C7.21538234 6.35965396 11.37210528 6.4660597 15.8125 6.625 C16.69615234 6.66367187 17.57980469 6.70234375 18.49023438 6.7421875 C20.65982972 6.83600784 22.82988547 6.91907326 25 7 C25 8.32 25 9.64 25 11 C23.02 11 21.04 11 19 11 C19 17.27 19 23.54 19 30 C17.35 30 15.7 30 14 30 C14 23.73 14 17.46 14 11 C11.69 11 9.38 11 7 11 C6.34 11 5.68 11 5 11 C4.90912109 12.93166016 4.90912109 12.93166016 4.81640625 14.90234375 C4.73201753 16.58074159 4.6473687 18.25912636 4.5625 19.9375 C4.52318359 20.78763672 4.48386719 21.63777344 4.44335938 22.51367188 C4.40146484 23.32255859 4.35957031 24.13144531 4.31640625 24.96484375 C4.27974854 25.7137085 4.24309082 26.46257324 4.20532227 27.23413086 C4 29 4 29 3 30 C1.35 30 -0.3 30 -2 30 C-2 22.74 -2 15.48 -2 8 C-2.99 8.33 -3.98 8.66 -5 9 C-5 11.97 -5 14.94 -5 18 C-13.42857143 22.57142857 -13.42857143 22.57142857 -18 22 C-18 24.64 -18 27.28 -18 30 C-19.65 30 -21.3 30 -23 30 C-23 22.41 -23 14.82 -23 7 C-13 7 -13 7 -10 8 C-8.9171875 6.8553125 -8.9171875 6.8553125 -7.8125 5.6875 C-5.30209033 3.28866409 -3.03191698 1.64589779 0 0 Z " fill="#D0D5DF" transform="translate(415,264)"/>
<path d="M0 0 C2.91541534 2.71027951 4.82817243 5.24352037 6.6875 8.75 C12.23232061 18.17619504 20.36954333 23.24777465 30 28 C29.45276317 31.37462715 28.9451 33.08235 27 36 C26.01 36 25.02 36 24 36 C23.34 36.66 22.68 37.32 22 38 C21.34 37.67 20.68 37.34 20 37 C20 37.66 20 38.32 20 39 C20.66 39 21.32 39 22 39 C22 39.66 22 40.32 22 41 C10.47269585 39.35917653 1.40958228 29.56178277 -5.375 20.75 C-7.21233581 18.2660041 -8.67761435 15.79307622 -10 13 C-9.236875 12.855625 -8.47375 12.71125 -7.6875 12.5625 C-3.00407668 11.64354539 -3.00407668 11.64354539 0 8 C0.33 8 0.66 8 1 8 C0.835 7.236875 0.67 6.47375 0.5 5.6875 C0 3 0 3 0 0 Z " fill="#4E669D" transform="translate(274,149)"/>
<path d="M0 0 C10.0589882 -0.62220546 17.92408697 0.54748051 26 6.875 C30.95729206 11.52973433 31.55356493 17.45228563 32 24 C32.07147423 27.33546417 32.06151561 30.66448696 32 34 C26.16809958 32.50464092 21.79229535 29.50835274 17 26 C16.32710938 25.51917969 15.65421875 25.03835937 14.9609375 24.54296875 C10.37043144 20.93091717 7.18282759 16.71450441 4 11.875 C3.60167969 11.276875 3.20335937 10.67875 2.79296875 10.0625 C0.60509081 6.58354214 -0.49831661 4.12668443 0 0 Z " fill="#E8E9EA" transform="translate(274,144)"/>
<path d="M0 0 C1.98 0 3.96 0 6 0 C6 10.89 6 21.78 6 33 C4.35 33 2.7 33 1 33 C0.67 25.74 0.34 18.48 0 11 C-1.11375 13.2275 -1.11375 13.2275 -2.25 15.5 C-4.5 20 -6.75 24.5 -9 29 C-10.65 29 -12.3 29 -14 29 C-14 28.01 -14 27.02 -14 26 C-14.66 26 -15.32 26 -16 26 C-16.4125 25.01 -16.825 24.02 -17.25 23 C-19.02782972 18.93638922 -21.01638657 14.96722685 -23 11 C-23.33 18.26 -23.66 25.52 -24 33 C-25.65 33 -27.3 33 -29 33 C-29 22.44 -29 11.88 -29 1 C-26.69 1 -24.38 1 -22 1 C-19 6.625 -19 6.625 -19 10 C-18.34 10 -17.68 10 -17 10 C-15.35 13.3 -13.7 16.6 -12 20 C-10.012854 17.35047201 -8.47852125 15.21699615 -6.9921875 12.36328125 C-6.64542969 11.70392578 -6.29867187 11.04457031 -5.94140625 10.36523438 C-5.41353516 9.34913086 -5.41353516 9.34913086 -4.875 8.3125 C-1.12133072 1.12133072 -1.12133072 1.12133072 0 0 Z " fill="#556CA1" transform="translate(196,224)"/>
<path d="M0 0 C7.53954886 0.95630307 15.22950654 6.4210533 20 12.25 C20.66 13.1575 21.32 14.065 22 15 C22.99 15.86625 22.99 15.86625 24 16.75 C27.6475173 20.85345696 31 26.43584011 31 32 C21.55253712 32.54272659 12.42353359 31.36302879 5 25 C0.56260588 19.02164587 -0.13591217 13.45530531 -0.0625 6.1875 C-0.05347656 5.02605469 -0.04445313 3.86460938 -0.03515625 2.66796875 C-0.02355469 1.78753906 -0.01195312 0.90710938 0 0 Z " fill="#EAEBEC" transform="translate(339,80)"/>
<path d="M0 0 C2.0234375 0.6875 2.0234375 0.6875 4.0234375 3.6875 C4.0234375 3.0275 4.0234375 2.3675 4.0234375 1.6875 C10.54651442 2.30288462 10.54651442 2.30288462 12.9609375 4.25 C13.3115625 4.724375 13.6621875 5.19875 14.0234375 5.6875 C15.0134375 5.0275 16.0034375 4.3675 17.0234375 3.6875 C19.35543138 3.60844936 21.69176372 3.59951231 24.0234375 3.6875 C24.0234375 4.3475 24.0234375 5.0075 24.0234375 5.6875 C26.6634375 5.3575 29.3034375 5.0275 32.0234375 4.6875 C32.5184375 6.6675 32.5184375 6.6675 33.0234375 8.6875 C32.0334375 8.6875 31.0434375 8.6875 30.0234375 8.6875 C30.3534375 8.0275 30.6834375 7.3675 31.0234375 6.6875 C29.3734375 7.0175 27.7234375 7.3475 26.0234375 7.6875 C26.0234375 8.3475 26.0234375 9.0075 26.0234375 9.6875 C27.0134375 10.0175 28.0034375 10.3475 29.0234375 10.6875 C28.0334375 10.6875 27.0434375 10.6875 26.0234375 10.6875 C26.0234375 11.6775 26.0234375 12.6675 26.0234375 13.6875 C29.4884375 13.1925 29.4884375 13.1925 33.0234375 12.6875 C32.6934375 13.6775 32.3634375 14.6675 32.0234375 15.6875 C29.2734375 15.9375 29.2734375 15.9375 26.0234375 15.6875 C23.7734375 13.6875 23.7734375 13.6875 22.0234375 11.6875 C21.3634375 11.6875 20.7034375 11.6875 20.0234375 11.6875 C19.6934375 13.0075 19.3634375 14.3275 19.0234375 15.6875 C18.3840625 15.790625 17.7446875 15.89375 17.0859375 16 C16.4053125 16.226875 15.7246875 16.45375 15.0234375 16.6875 C14.6934375 17.6775 14.3634375 18.6675 14.0234375 19.6875 C14.0234375 19.0275 14.0234375 18.3675 14.0234375 17.6875 C12.66412109 17.59662109 12.66412109 17.59662109 11.27734375 17.50390625 C7.52490217 17.2458018 3.77425609 16.96811973 0.0234375 16.6875 C-0.92144531 16.62691406 -1.86632812 16.56632812 -2.83984375 16.50390625 C-5.2265625 16.3125 -5.2265625 16.3125 -8.9765625 15.6875 C-11.45271625 11.97326938 -11.62002583 8.99118331 -10.9765625 4.6875 C-8.36247184 -0.88164966 -5.53694139 -0.73580616 0 0 Z " fill="#E3E3E4" transform="translate(430.9765625,315.3125)"/>
<path d="M0 0 C2.31 0 4.62 0 7 0 C7.36351562 0.94359375 7.36351562 0.94359375 7.734375 1.90625 C9.32882482 5.97822954 10.92186841 9.96135932 13 13.8125 C15.87520446 19.36894672 19 26.69323777 19 33 C17.35 33 15.7 33 14 33 C11 27.25 11 27.25 11 25 C6.05 25 1.1 25 -4 25 C-4.33 27.31 -4.66 29.62 -5 32 C-6 33 -6 33 -9.0625 33.0625 C-10.031875 33.041875 -11.00125 33.02125 -12 33 C-11.30710991 28.28834736 -9.54211826 24.22014702 -7.6875 19.875 C-4.93160971 13.31305338 -2.33834643 6.72456147 0 0 Z " fill="#4F679D" transform="translate(279,224)"/>
<path d="M0 0 C2.31 0 4.62 0 7 0 C7.01981934 0.7113208 7.03963867 1.4226416 7.06005859 2.15551758 C7.15524867 5.37488816 7.26495229 8.5936045 7.375 11.8125 C7.4059375 12.93205078 7.436875 14.05160156 7.46875 15.20507812 C7.50742187 16.27822266 7.54609375 17.35136719 7.5859375 18.45703125 C7.6173584 19.44678955 7.6487793 20.43654785 7.68115234 21.45629883 C7.83773433 24.24075094 7.83773433 24.24075094 10 27 C13.25389907 27.42442162 15.25406814 27.40698704 18.15722656 25.82299805 C20.640908 23.36596978 20.53629099 21.9102509 20.609375 18.45703125 C20.64160156 17.38388672 20.67382812 16.31074219 20.70703125 15.20507812 C20.72121094 14.08552734 20.73539062 12.96597656 20.75 11.8125 C20.77964844 10.68134766 20.80929687 9.55019531 20.83984375 8.38476562 C20.91060309 5.58977167 20.96326976 2.79561472 21 0 C23.31 0 25.62 0 28 0 C28 7.92 28 15.84 28 24 C27.34 24 26.68 24 26 24 C25.9175 24.5775 25.835 25.155 25.75 25.75 C24.7766189 28.6701433 23.32386725 30.01787793 21 32 C16.64313842 33.45228719 12.54884895 33.63669736 8 33 C4.11093751 31.01982561 1.5867814 28.04253608 0 24 C-0.22705078 21.34277344 -0.22705078 21.34277344 -0.1953125 18.359375 C-0.18886719 17.28945312 -0.18242187 16.21953125 -0.17578125 15.1171875 C-0.15902344 14.00601563 -0.14226562 12.89484375 -0.125 11.75 C-0.11597656 10.62335938 -0.10695313 9.49671875 -0.09765625 8.3359375 C-0.07410658 5.55707635 -0.0412168 2.7786461 0 0 Z " fill="#5E73A3" transform="translate(406,224)"/>
<path d="M0 0 C3.84516733 1.55719032 5.29592859 3.16583933 7 7 C7.59676278 10.58057666 7.73781641 12.86281507 5.72265625 15.96875 C1.87081129 20.56459436 1.87081129 20.56459436 -1 22 C-5.60029111 22.1265306 -9.11847992 21.53970617 -13.0625 19.125 C-15.94223733 14.48026236 -15.95678287 10.3181181 -15 5 C-11.48191726 -0.98074066 -6.35194802 -0.98119522 0 0 Z " fill="#576EA0" transform="translate(363,272)"/>
<path d="M0 0 C4.57627119 3.15254237 4.57627119 3.15254237 6 6 C6.64507919 11.20671061 6.9173523 14.81709835 3.625 19.0625 C-0.48974393 22.0995729 -2.8463463 22.43675031 -8 22 C-10.75329021 20.20437595 -12.52627461 18.94745078 -14 16 C-14.41241314 11.95835123 -14.50096351 8.03523356 -14 4 C-9.92434738 -0.73656926 -5.92294742 -1.53996633 0 0 Z " fill="#E9EAEC" transform="translate(228,230)"/>
<path d="M0 0 C17.34483382 0 17.34483382 0 21.74609375 3.2890625 C23.82781046 6.12953577 23.59210427 8.80428716 23.28125 12.20703125 C23.14203125 13.09455078 23.14203125 13.09455078 23 14 C22.34 14 21.68 14 21 14 C20.67 14.99 20.34 15.98 20 17 C18.68 17 17.36 17 16 17 C16 17.99 16 18.98 16 20 C15.34 20 14.68 20 14 20 C14 19.34 14 18.68 14 18 C13.34 17.67 12.68 17.34 12 17 C12.66 17 13.32 17 14 17 C14 16.34 14 15.68 14 15 C14.66 15 15.32 15 16 15 C16 12.36 16 9.72 16 7 C12.7 6.34 9.4 5.68 6 5 C6 8.63 6 12.26 6 16 C6.66 16 7.32 16 8 16 C8 16.66 8 17.32 8 18 C8.66 18.33 9.32 18.66 10 19 C9.01 19 8.02 19 7 19 C7 23.62 7 28.24 7 33 C4.69 33 2.38 33 0 33 C0 22.11 0 11.22 0 0 Z " fill="#4B639A" transform="translate(439,224)"/>
<path d="M0 0 C1.65234375 1.09375 1.65234375 1.09375 4.02734375 3.09375 C3.36734375 4.41375 2.70734375 5.73375 2.02734375 7.09375 C1.47046875 6.93519531 0.91359375 6.77664062 0.33984375 6.61328125 C-4.66575454 5.48871272 -9.94489676 5.07987026 -14.59765625 7.40625 C-16.811218 11.73275705 -16.7486277 16.34005102 -15.97265625 21.09375 C-14.52025601 23.76179559 -13.7341216 24.85372288 -10.81640625 25.7734375 C-10.04296875 25.83789062 -9.26953125 25.90234375 -8.47265625 25.96875 C-7.3125 26.08863281 -7.3125 26.08863281 -6.12890625 26.2109375 C-3.6720759 26.26077871 -3.6720759 26.26077871 -0.97265625 24.09375 C1.21484375 24.46875 1.21484375 24.46875 3.02734375 25.09375 C3.02734375 26.41375 3.02734375 27.73375 3.02734375 29.09375 C-0.10294242 32.11609527 -3.2336608 32.3662386 -7.41015625 32.53125 C-13.64960067 32.3467503 -16.802721 30.34729744 -21.1015625 25.8828125 C-24.51183135 20.79944723 -23.64385095 14.98227257 -22.97265625 9.09375 C-21.03564016 4.59987266 -18.43258708 2.04178987 -14.03125 -0.2109375 C-9.47120093 -1.75114383 -4.43086295 -2.03556476 0 0 Z " fill="#546BA1" transform="translate(337.97265625,224.90625)"/>
<path d="M0 0 C0.495 0.495 0.99 0.99 1.5 1.5 C1.17 2.82 0.84 4.14 0.5 5.5 C-0.82 5.5 -2.14 5.5 -3.5 5.5 C-3.5 4.84 -3.5 4.18 -3.5 3.5 C-5.81 3.83 -8.12 4.16 -10.5 4.5 C-10.83 6.15 -11.16 7.8 -11.5 9.5 C-10.74074219 9.82613281 -9.98148438 10.15226563 -9.19921875 10.48828125 C-8.20535156 10.92527344 -7.21148437 11.36226562 -6.1875 11.8125 C-5.20136719 12.24175781 -4.21523438 12.67101562 -3.19921875 13.11328125 C-0.70417653 14.39510468 0.87742951 15.23171268 2.5 17.5 C2.93153918 20.65673866 2.43453898 23.4680582 1.5 26.5 C-1.23291228 29.93365902 -2.65492485 31.19641735 -6.9453125 31.90234375 C-11.91721567 32.08786252 -15.48714287 31.71028571 -19.5 28.5 C-19.17 26.85 -18.84 25.2 -18.5 23.5 C-17.18 23.5 -15.86 23.5 -14.5 23.5 C-14.5 24.16 -14.5 24.82 -14.5 25.5 C-13.22125 25.520625 -11.9425 25.54125 -10.625 25.5625 C-9.90570313 25.57410156 -9.18640625 25.58570313 -8.4453125 25.59765625 C-6.41814596 25.62649242 -6.41814596 25.62649242 -4.5 24.5 C-4.5 22.85 -4.5 21.2 -4.5 19.5 C-8.46 17.85 -12.42 16.2 -16.5 14.5 C-16.5 13.84 -16.5 13.18 -16.5 12.5 C-17.16 12.5 -17.82 12.5 -18.5 12.5 C-18.75 4.875 -18.75 4.875 -16.5 1.5 C-15.84 1.5 -15.18 1.5 -14.5 1.5 C-14.5 0.84 -14.5 0.18 -14.5 -0.5 C-9.7339657 -2.0886781 -4.36746631 -2.62047979 0 0 Z " fill="#556C9F" transform="translate(262.5,225.5)"/>
<path d="M0 0 C6.93 0 13.86 0 21 0 C21 1.65 21 3.3 21 5 C16.05 5 11.1 5 6 5 C6 8.3 6 11.6 6 15 C9.96 15 13.92 15 18 15 C18 16.32 18 17.64 18 19 C14.04 19 10.08 19 6 19 C6 23.62 6 28.24 6 33 C4.02 33 2.04 33 0 33 C0 22.11 0 11.22 0 0 Z " fill="#476098" transform="translate(381,224)"/>
<path d="M0 0 C11 0 11 0 13.6875 1.625 C15.38651909 4.6994155 15.42540833 6.525832 15 10 C14.38125 11.2375 14.38125 11.2375 13.75 12.5 C13.5025 13.325 13.255 14.15 13 15 C14.80132223 18.20212693 14.80132223 18.20212693 17 21 C17 21.66 17 22.32 17 23 C14.8125 22.9375 14.8125 22.9375 12 22 C10.51728618 20.28561215 9.31959171 18.51127281 8.11328125 16.59375 C7.07639069 14.83938228 7.07639069 14.83938228 5 14 C5 16.97 5 19.94 5 23 C3.35 23 1.7 23 0 23 C0 15.41 0 7.82 0 0 Z " fill="#7486AE" transform="translate(253,271)"/>
<path d="M0 0 C0.33 0 0.66 0 1 0 C1.10655578 6.44070471 0.96205088 12.62641289 0 19 C-0.66 19 -1.32 19 -2 19 C-2.5259375 20.8871875 -2.5259375 20.8871875 -3.0625 22.8125 C-6.28397718 32.37155612 -11.91019406 40.03826681 -20 46 C-20.61488281 46.46019531 -21.22976563 46.92039063 -21.86328125 47.39453125 C-29.59007781 52.68970653 -37.69687573 55 -47 55 C-47 49.06 -47 43.12 -47 37 C-46.67 37 -46.34 37 -46 37 C-46 41.95 -46 46.9 -46 52 C-43.628125 51.38125 -41.25625 50.7625 -38.8125 50.125 C-38.07491455 49.93437988 -37.3373291 49.74375977 -36.57739258 49.54736328 C-32.93576688 48.58642653 -29.45892646 47.49103238 -26 46 C-26 45.34 -26 44.68 -26 44 C-25.01 43.525625 -24.02 43.05125 -23 42.5625 C-16.93376277 39.11549351 -11.84803241 33.36108763 -9 27 C-8.34 27 -7.68 27 -7 27 C-6.86722656 26.15179688 -6.73445313 25.30359375 -6.59765625 24.4296875 C-5.63372209 18.89809149 -4.28277921 13.4657549 -3 8 C-7.29 8 -11.58 8 -16 8 C-16 7.67 -16 7.34 -16 7 C-11.71 7 -7.42 7 -3 7 C-3 5.35 -3 3.7 -3 2 C-2.34 2 -1.68 2 -1 2 C-0.67 1.34 -0.34 0.68 0 0 Z " fill="#E3E1DB" transform="translate(372,125)"/>
<path d="M0 0 C0.66 0.99 1.32 1.98 2 3 C2.66 2.01 3.32 1.02 4 0 C4 7.26 4 14.52 4 22 C2.35 22.66 0.7 23.32 -1 24 C-1.33 23.34 -1.66 22.68 -2 22 C-1.67 21.01 -1.34 20.02 -1 19 C-5.29 19 -9.58 19 -14 19 C-14 23.29 -14 27.58 -14 32 C-14.33 32 -14.66 32 -15 32 C-15 27.38 -15 22.76 -15 18 C-11.04 18 -7.08 18 -3 18 C-3 16.68 -3 15.36 -3 14 C-6.96 14 -10.92 14 -15 14 C-15 10.7 -15 7.4 -15 4 C-10.05 4 -5.1 4 0 4 C0 2.68 0 1.36 0 0 Z " fill="#DEE1E6" transform="translate(402,225)"/>
<path d="M0 0 C1.32 0 2.64 0 4 0 C4 0.66 4 1.32 4 2 C4.66 2 5.32 2 6 2 C6.33 2.33 6.66 2.66 7 3 C7 2.01 7 1.02 7 0 C7.99 0 8.98 0 10 0 C10.2358396 5.77807024 9.86783046 10.51324804 8 16 C7.01 16 6.02 16 5 16 C5 15.34 5 14.68 5 14 C4.34 14 3.68 14 3 14 C2.67 15.32 2.34 16.64 2 18 C1.01 17.67 0.02 17.34 -1 17 C-1.33 13.7 -1.66 10.4 -2 7 C-2.99 9.97 -3.98 12.94 -5 16 C-7.97 16 -10.94 16 -14 16 C-14.48875646 11.89444576 -14.12882814 10.21080968 -11.9375 6.625 C-9 4 -9 4 -5.1875 3.625 C-4.135625 3.74875 -3.08375 3.8725 -2 4 C-1.67 3.01 -1.34 2.02 -1 1 C-0.67 0.67 -0.34 0.34 0 0 Z " fill="#E3E3E4" transform="translate(332,315)"/>
<path d="M0 0 C11.55555556 0 11.55555556 0 15 2 C16.40457737 4.80915474 16.24895157 6.88810534 16 10 C15 12.3125 15 12.3125 13 14 C10.29697877 14.63443694 7.79025492 14.81703246 5 15 C5 17.64 5 20.28 5 23 C3.35 23 1.7 23 0 23 C0 15.41 0 7.82 0 0 Z " fill="#7688AF" transform="translate(392,271)"/>
<path d="M0 0 C5 0 5 0 6.6953125 1.609375 C7.40300781 2.66898437 7.40300781 2.66898437 8.125 3.75 C8.84042969 4.79414063 8.84042969 4.79414063 9.5703125 5.859375 C10.04210937 6.56578125 10.51390625 7.2721875 11 8 C11.99 9.32 12.98 10.64 14 12 C14.33 8.04 14.66 4.08 15 0 C16.32 0 17.64 0 19 0 C19 7.26 19 14.52 19 22 C17.68 22 16.36 22 15 22 C13.625 20 13.625 20 12 17 C11.00117904 15.56772844 9.97872564 14.15174687 8.9375 12.75 C8.43089844 12.06421875 7.92429688 11.3784375 7.40234375 10.671875 C6.08579411 8.87711496 6.08579411 8.87711496 4 8 C4 12.62 4 17.24 4 22 C2.68 22 1.36 22 0 22 C0 14.74 0 7.48 0 0 Z " fill="#6278A8" transform="translate(209,272)"/>
<path d="M0 0 C2.31 0 4.62 0 7 0 C7.36351562 0.94359375 7.36351562 0.94359375 7.734375 1.90625 C9.41106152 6.18824943 11.12126825 10.32847446 13.3125 14.375 C15.03433482 18.07375628 15.20907496 18.45858043 14 22 C13.67 21.34 13.34 20.68 13 20 C12.01 20.33 11.02 20.66 10 21 C8.10529184 21.0685495 6.2083166 21.08480372 4.3125 21.0625 C3.31863281 21.05347656 2.32476562 21.04445312 1.30078125 21.03515625 C0.16189453 21.01775391 0.16189453 21.01775391 -1 21 C-0.67 17.7 -0.34 14.4 0 11 C-0.99 11 -1.98 11 -3 11 C-2.44894091 7.0507432 -1.61064629 3.65079826 0 0 Z " fill="#566EA1" transform="translate(279,224)"/>
<path d="M0 0 C1.2065625 0.0309375 1.2065625 0.0309375 2.4375 0.0625 C6.13503648 7.20257045 9.43029424 14.00485395 10.4375 22.0625 C8.7875 21.7325 7.1375 21.4025 5.4375 21.0625 C5.1075 19.7425 4.7775 18.4225 4.4375 17.0625 C1.4675 16.7325 -1.5025 16.4025 -4.5625 16.0625 C-4.8925 17.7125 -5.2225 19.3625 -5.5625 21.0625 C-7.2125 21.3925 -8.8625 21.7225 -10.5625 22.0625 C-9.82901604 17.40487688 -8.23378952 13.19569326 -6.5625 8.8125 C-6.28921875 8.0803125 -6.0159375 7.348125 -5.734375 6.59375 C-3.27356571 0.07984307 -3.27356571 0.07984307 0 0 Z " fill="#50699E" transform="translate(283.5625,271.9375)"/>
<path d="M0 0 C1.32 0 2.64 0 4 0 C4 3.3 4 6.6 4 10 C7.3 10 10.6 10 14 10 C14 7.03 14 4.06 14 1 C15.32 1 16.64 1 18 1 C18 8.26 18 15.52 18 23 C16.68 23 15.36 23 14 23 C14 19.7 14 16.4 14 13 C10.7 13 7.4 13 4 13 C4 16.3 4 19.6 4 23 C2.35 23 0.7 23 -1 23 C-1.02887512 19.35418313 -1.04675585 15.70839537 -1.0625 12.0625 C-1.07087891 11.02158203 -1.07925781 9.98066406 -1.08789062 8.90820312 C-1.09272461 7.42416992 -1.09272461 7.42416992 -1.09765625 5.91015625 C-1.10289307 4.99371338 -1.10812988 4.07727051 -1.11352539 3.13305664 C-1 1 -1 1 0 0 Z " fill="#7A8BB3" transform="translate(324,271)"/>
<path d="M0 0 C2.265625 -0.0859375 2.265625 -0.0859375 5 1 C6.71378003 3.95539617 7.6969757 7.1356517 8.75 10.375 C9.05292969 11.2515625 9.35585938 12.128125 9.66796875 13.03125 C10.46508506 15.3482014 11.23822081 17.67124212 12 20 C12.33 20.99 12.66 21.98 13 23 C11.35 23 9.7 23 8 23 C7.67 21.02 7.34 19.04 7 17 C3.7 17 0.4 17 -3 17 C-3.33 18.65 -3.66 20.3 -4 22 C-5.32 22 -6.64 22 -8 22 C-7.01825569 16.69858074 -5.93618293 12.58044537 -3 8 C-1.9083699 5.36023993 -0.95840475 2.69266096 0 0 Z " fill="#5A70A2" transform="translate(449,271)"/>
<path d="M0 0 C7.42857143 -0.28571429 7.42857143 -0.28571429 11 2 C11.125 7.75 11.125 7.75 10 10 C9.34 10 8.68 10 8 10 C8 11.65 8 13.3 8 15 C8.66 15 9.32 15 10 15 C10 14.01 10 13.02 10 12 C10.99 12.33 11.98 12.66 13 13 C12.34 13 11.68 13 11 13 C11.6496875 13.99902344 12.299375 14.99804688 12.96875 16.02734375 C13.81261881 17.33065225 14.65636236 18.63404185 15.5 19.9375 C16.14388672 20.9265332 16.14388672 20.9265332 16.80078125 21.93554688 C20 26.88671875 20 26.88671875 20 28 C16.9375 28.6875 16.9375 28.6875 13 28 C10.92528509 25.32874972 9.35580706 22.58876747 7.7734375 19.6015625 C5.75530912 16.64104818 4.39211595 15.96090656 1 15 C1.33 13.68 1.66 12.36 2 11 C1.34 11 0.68 11 0 11 C0 7.37 0 3.74 0 0 Z " fill="#596FA1" transform="translate(445,229)"/>
<path d="M0 0 C4.62 0 9.24 0 14 0 C14 1.32 14 2.64 14 4 C11.03 4 8.06 4 5 4 C5 5.98 5 7.96 5 10 C7.31 10 9.62 10 12 10 C12 10.99 12 11.98 12 13 C9.69 13 7.38 13 5 13 C5 14.98 5 16.96 5 19 C7.97 19 10.94 19 14 19 C14 20.32 14 21.64 14 23 C9.38 23 4.76 23 0 23 C0 15.41 0 7.82 0 0 Z " fill="#7B8BB3" transform="translate(234,271)"/>
<path d="M0 0 C0.9796875 -0.00257813 1.959375 -0.00515625 2.96875 -0.0078125 C5.5 0.125 5.5 0.125 7.5 1.125 C7.5 2.445 7.5 3.765 7.5 5.125 C6.46939453 4.98191406 6.46939453 4.98191406 5.41796875 4.8359375 C4.51691406 4.72507812 3.61585938 4.61421875 2.6875 4.5 C1.34751953 4.32597656 1.34751953 4.32597656 -0.01953125 4.1484375 C-2.75690391 3.88999257 -2.75690391 3.88999257 -5.5 6.125 C-6.0540567 12.00989457 -6.0540567 12.00989457 -3.5 17.125 C-1.53638136 17.70248803 -1.53638136 17.70248803 0.625 17.8125 C1.90375 17.915625 3.1825 18.01875 4.5 18.125 C4.5 16.475 4.5 14.825 4.5 13.125 C3.51 13.125 2.52 13.125 1.5 13.125 C1.5 12.465 1.5 11.805 1.5 11.125 C3.81 11.125 6.12 11.125 8.5 11.125 C8.5 14.095 8.5 17.065 8.5 20.125 C3.85949922 21.67183359 -0.65863028 21.73371023 -5.5 21.125 C-8.65217058 19.10761083 -10.03988711 17.78469293 -11.046875 14.15234375 C-11.59565533 10.65713566 -11.75214518 7.46405382 -10.5 4.125 C-9.84 4.125 -9.18 4.125 -8.5 4.125 C-8.17 3.135 -7.84 2.145 -7.5 1.125 C-4.89080172 -0.17959914 -2.91057385 -0.0076594 0 0 Z " fill="#5C72A3" transform="translate(176.5,271.875)"/>
<path d="M0 0 C1.98 0 3.96 0 6 0 C6 10.89 6 21.78 6 33 C4.02 33 2.04 33 0 33 C0 22.11 0 11.22 0 0 Z " fill="#4E679C" transform="translate(470,224)"/>
<path d="M0 0 C1.98 0 3.96 0 6 0 C6 10.89 6 21.78 6 33 C4.02 33 2.04 33 0 33 C0 22.11 0 11.22 0 0 Z " fill="#52699F" transform="translate(303,224)"/>
<path d="M0 0 C4.62 0 9.24 0 14 0 C14 0.99 14 1.98 14 3 C10.7 3 7.4 3 4 3 C4 4.98 4 6.96 4 9 C6.64 9 9.28 9 12 9 C12 9.99 12 10.98 12 12 C9.36 12 6.72 12 4 12 C4 13.98 4 15.96 4 18 C7.3 18 10.6 18 14 18 C14 19.32 14 20.64 14 22 C9.38 22 4.76 22 0 22 C0 14.74 0 7.48 0 0 Z " fill="#687BA9" transform="translate(190,272)"/>
<path d="M0 0 C1.98 0 3.96 0 6 0 C6.33 3.3 6.66 6.6 7 10 C6.67 10 6.34 10 6 10 C5.67 17.26 5.34 24.52 5 32 C3.35 32 1.7 32 0 32 C0 21.44 0 10.88 0 0 Z " fill="#4C659C" transform="translate(167,225)"/>
<path d="M0 0 C0.66 0 1.32 0 2 0 C2 1.32 2 2.64 2 4 C2.99 4 3.98 4 5 4 C5 4.66 5 5.32 5 6 C5.53625 5.67 6.0725 5.34 6.625 5 C9.5391061 3.77300796 11.86867708 3.85766714 15 4 C15.33 5.32 15.66 6.64 16 8 C13 10 13 10 9 10 C9.33 10.99 9.66 11.98 10 13 C11.65 12.67 13.3 12.34 15 12 C14.375 13.9375 14.375 13.9375 13 16 C9.9375 16.8125 9.9375 16.8125 7 17 C6.67 16.67 6.34 16.34 6 16 C3.67182036 15.63239269 1.3381615 15.29758419 -1 15 C-1.33 11.37 -1.66 7.74 -2 4 C-1.34 4 -0.68 4 0 4 C0 2.68 0 1.36 0 0 Z " fill="#D9D9D9" transform="translate(218,316)"/>
<path d="M0 0 C-3.98997621 3.98997621 -8.02616716 6.65777616 -13.1328125 8.97265625 C-15.0835095 9.93250907 -15.0835095 9.93250907 -16.6171875 11.62109375 C-18 13 -18 13 -20 13 C-20.28101563 13.5878125 -20.56203125 14.175625 -20.8515625 14.78125 C-21.90630606 16.81898586 -23.07593057 18.61345331 -24.375 20.5 C-27.6387219 25.61348713 -29.27641444 31.22261824 -31 37 C-31.66 36.34 -32.32 35.68 -33 35 C-33.66 35.99 -34.32 36.98 -35 38 C-33.65084744 25.04813543 -27.40503751 15.42675389 -17.5 7.0625 C-5.85816354 -1.9312627 -5.85816354 -1.9312627 0 0 Z " fill="#D0D5DE" transform="translate(306,81)"/>
<path d="M0 0 C0.90105469 0.02707031 1.80210937 0.05414063 2.73046875 0.08203125 C3.76107422 0.13423828 3.76107422 0.13423828 4.8125 0.1875 C4.8125 1.5075 4.8125 2.8275 4.8125 4.1875 C2.1725 4.1875 -0.4675 4.1875 -3.1875 4.1875 C-3.1875 5.1775 -3.1875 6.1675 -3.1875 7.1875 C-2.62160156 7.46464844 -2.05570312 7.74179687 -1.47265625 8.02734375 C-0.73917969 8.38957031 -0.00570313 8.75179688 0.75 9.125 C1.84634766 9.66447266 1.84634766 9.66447266 2.96484375 10.21484375 C4.8125 11.1875 4.8125 11.1875 5.8125 12.1875 C5.57999436 18.46515237 5.57999436 18.46515237 2.6875 21.1875 C-0.98775691 22.46585023 -3.42722946 22.03888201 -7.1875 21.1875 C-7.8475 20.8575 -8.5075 20.5275 -9.1875 20.1875 C-8.8575 18.8675 -8.5275 17.5475 -8.1875 16.1875 C-5.2175 16.5175 -2.2475 16.8475 0.8125 17.1875 C1.1425 15.8675 1.4725 14.5475 1.8125 13.1875 C0.905 13.105 -0.0025 13.0225 -0.9375 12.9375 C-4.66158179 12.07809651 -5.96515381 11.26459473 -8.1875 8.1875 C-8.625 5.625 -8.625 5.625 -8.1875 3.1875 C-5.79964426 -0.06866692 -3.91281916 -0.1524475 0 0 Z " fill="#5C71A1" transform="translate(382.1875,271.8125)"/>
<path d="M0 0 C2.60704898 2.60704898 2.23905333 4.47338241 2.265625 8.02734375 C2 10 2 10 0 13 C-3.43558359 14.06884823 -5.42342962 14.17547794 -8.875 13.125 C-11.35113062 10.64886938 -11.40233501 9.89107953 -11.5625 6.5 C-11.37775912 3.51497624 -11.23342565 2.31745889 -9.4375 -0.125 C-5.98160125 -1.36557904 -3.52798477 -0.84932967 0 0 Z " fill="#E6E7EA" transform="translate(363,276)"/>
<path d="M0 0 C4.95 0 9.9 0 15 0 C15 0.33 15 0.66 15 1 C10.38 1 5.76 1 1 1 C1 6.28 1 11.56 1 17 C2.32 17 3.64 17 5 17 C5.33 16.34 5.66 15.68 6 15 C6.66 15.33 7.32 15.66 8 16 C8 16.66 8 17.32 8 18 C8.66 18.33 9.32 18.66 10 19 C9.01 19 8.02 19 7 19 C7 23.62 7 28.24 7 33 C4.69 33 2.38 33 0 33 C0 22.11 0 11.22 0 0 Z " fill="#6478A7" transform="translate(439,224)"/>
<path d="M0 0 C1.32 0 2.64 0 4 0 C4 6.27 4 12.54 4 19 C6.97 19 9.94 19 13 19 C13 20.32 13 21.64 13 23 C8.38 23 3.76 23 -1 23 C-1.02682987 19.35411831 -1.04675569 15.70843154 -1.0625 12.0625 C-1.07087891 11.02158203 -1.07925781 9.98066406 -1.08789062 8.90820312 C-1.09272461 7.42416992 -1.09272461 7.42416992 -1.09765625 5.91015625 C-1.10289307 4.99371338 -1.10812988 4.07727051 -1.11352539 3.13305664 C-1 1 -1 1 0 0 Z " fill="#6D80AD" transform="translate(299,271)"/>
<path d="M0 0 C5.61 0 11.22 0 17 0 C17 0.99 17 1.98 17 3 C15.02 3 13.04 3 11 3 C11 9.27 11 15.54 11 22 C9.35 22 7.7 22 6 22 C6 15.73 6 9.46 6 3 C4.02 3 2.04 3 0 3 C0 2.01 0 1.02 0 0 Z " fill="#6E81AC" transform="translate(423,272)"/>
<path d="M0 0 C6.93 0 13.86 0 21 0 C21 1.65 21 3.3 21 5 C16.05 5 11.1 5 6 5 C6 8.3 6 11.6 6 15 C5.67 15 5.34 15 5 15 C4.67 11.37 4.34 7.74 4 4 C3.34 4 2.68 4 2 4 C1.67 13.57 1.34 23.14 1 33 C0.67 33 0.34 33 0 33 C0 22.11 0 11.22 0 0 Z " fill="#586EA0" transform="translate(381,224)"/>
<path d="M0 0 C0.33 0.66 0.66 1.32 1 2 C1.66 2 2.32 2 3 2 C3 1.34 3 0.68 3 0 C3.66 0 4.32 0 5 0 C5 6.6 5 13.2 5 20 C4.67 20 4.34 20 4 20 C3.67 18.68 3.34 17.36 3 16 C2.67 16.99 2.34 17.98 2 19 C1.01 19.66 0.02 20.32 -1 21 C-1.66 20.34 -2.32 19.68 -3 19 C-2.505 18.608125 -2.01 18.21625 -1.5 17.8125 C0.53130643 15.75011995 0.53130643 15.75011995 0 11 C-2.97 9.35 -5.94 7.7 -9 6 C-8.67 4.68 -8.34 3.36 -8 2 C-5.36 2.33 -2.72 2.66 0 3 C0 2.01 0 1.02 0 0 Z " fill="#E8E9EA" transform="translate(387,273)"/>
<path d="M0 0 C1.32 0 2.64 0 4 0 C4 5.94 4 11.88 4 18 C6.97 18 9.94 18 13 18 C13 19.32 13 20.64 13 22 C8.71 22 4.42 22 0 22 C0 14.74 0 7.48 0 0 Z " fill="#586EA2" transform="translate(466,272)"/>
<path d="M0 0 C2.31 0 4.62 0 7 0 C7 0.66 7 1.32 7 2 C9.64 1.67 12.28 1.34 15 1 C15.33 2.32 15.66 3.64 16 5 C15.01 5 14.02 5 13 5 C13.33 4.34 13.66 3.68 14 3 C12.35 3.33 10.7 3.66 9 4 C9 4.66 9 5.32 9 6 C9.99 6.33 10.98 6.66 12 7 C11.01 7 10.02 7 9 7 C9 7.99 9 8.98 9 10 C12.465 9.505 12.465 9.505 16 9 C15.67 9.99 15.34 10.98 15 12 C12.25 12.25 12.25 12.25 9 12 C6.75 10 6.75 10 5 8 C4.34 8 3.68 8 3 8 C2.67 9.32 2.34 10.64 2 12 C1.01 12 0.02 12 -1 12 C-0.67 8.04 -0.34 4.08 0 0 Z " fill="#D4D4D6" transform="translate(448,319)"/>
<path d="M0 0 C1.20628008 2.33214148 2.1654738 4.49642139 3 7 C4.87387216 7.80212628 4.87387216 7.80212628 7.0625 8.1875 C7.79597656 8.34605469 8.52945312 8.50460937 9.28515625 8.66796875 C9.85105469 8.77753906 10.41695313 8.88710938 11 9 C10.67 10.65 10.34 12.3 10 14 C6.65747276 14.07427838 4.1964086 14.06546953 1 13 C0.67 13.99 0.34 14.98 0 16 C0.66 16.33 1.32 16.66 2 17 C1.67 17.66 1.34 18.32 1 19 C-0.65 18.67 -2.3 18.34 -4 18 C-3.814375 17.05125 -3.62875 16.1025 -3.4375 15.125 C-2.71313368 12.10131207 -2.71313368 12.10131207 -4 10 C-3.53956835 3.66906475 -3.53956835 3.66906475 -1.4375 1.0625 C-0.7259375 0.5365625 -0.7259375 0.5365625 0 0 Z " fill="#E6E6E8" transform="translate(373,276)"/>
<path d="M0 0 C0.33 0 0.66 0 1 0 C1 3.3 1 6.6 1 10 C16.51 10 32.02 10 48 10 C48 26.5 48 43 48 60 C47.67 60 47.34 60 47 60 C47 43.83 47 27.66 47 11 C31.49 11 15.98 11 0 11 C0 11.66 0 12.32 0 13 C-1.65 13.33 -3.3 13.66 -5 14 C-5 13.01 -5 12.02 -5 11 C-4.03320312 10.64808594 -4.03320312 10.64808594 -3.046875 10.2890625 C-0.7922092 9.18838927 -0.7922092 9.18838927 -0.390625 6.8359375 C-0.34421875 6.02382812 -0.2978125 5.21171875 -0.25 4.375 C-0.19328125 3.55773437 -0.1365625 2.74046875 -0.078125 1.8984375 C-0.05234375 1.27195312 -0.0265625 0.64546875 0 0 Z " fill="#7A89B2" transform="translate(270,120)"/>
<path d="M0 0 C0 0.66 0 1.32 0 2 C-0.66 2 -1.32 2 -2 2 C-1.96519531 2.77085937 -1.93039062 3.54171875 -1.89453125 4.3359375 C-1.86746094 5.33882813 -1.84039062 6.34171875 -1.8125 7.375 C-1.77769531 8.37273437 -1.74289062 9.37046875 -1.70703125 10.3984375 C-1.80371094 11.25695312 -1.90039062 12.11546875 -2 13 C-5.4352048 15.29013653 -6.985331 15.17842973 -11 15 C-11.33 13.35 -11.66 11.7 -12 10 C-10.68 9.34 -9.36 8.68 -8 8 C-8.66 7.34 -9.32 6.68 -10 6 C-10.125 3.375 -10.125 3.375 -10 1 C-6.78548731 -0.60725635 -3.56387464 -0.05748185 0 0 Z " fill="#A1A1A3" transform="translate(368,320)"/>
<path d="M0 0 C10.49036431 -0.37024815 10.49036431 -0.37024815 12.828125 1.328125 C14.67772302 3.96688484 14.44692969 5.87149219 14 9 C12 11.375 12 11.375 10 13 C9.34 12.67 8.68 12.34 8 12 C8 11.01 8 10.02 8 9 C8.66 9 9.32 9 10 9 C10 7.02 10 5.04 10 3 C7.69 2.67 5.38 2.34 3 2 C3 4.31 3 6.62 3 9 C2.34 9 1.68 9 1 9 C1.33 9.680625 1.66 10.36125 2 11.0625 C3.17307315 14.50840238 3.14180493 17.38397422 3 21 C2.01 21 1.02 21 0 21 C0 14.07 0 7.14 0 0 Z " fill="#476199" transform="translate(254,272)"/>
<path d="M0 0 C0.99 0 1.98 0 3 0 C2.50130596 5.36891879 1.97772468 10.69235173 1 16 C-5.15234375 16.09765625 -5.15234375 16.09765625 -7 16 C-8 15 -8 15 -8.25 12.1875 C-7.9742861 8.67214774 -7.61353342 7.34316789 -5 5 C-2.3125 4.75 -2.3125 4.75 0 5 C0 3.35 0 1.7 0 0 Z " fill="#676768" transform="translate(244,315)"/>
<path d="M0 0 C0.33 0.66 0.66 1.32 1 2 C0.67 2.66 0.34 3.32 0 4 C0.66 4.33 1.32 4.66 2 5 C1.90460938 5.99257812 1.80921875 6.98515625 1.7109375 8.0078125 C0.91233235 17.37316753 1.24483865 25.71650195 3 35 C1.02 35 -0.96 35 -3 35 C-2.67 34.01 -2.34 33.02 -2 32 C-1.9396244 29.73906887 -1.93958001 27.47633899 -1.97265625 25.21484375 C-1.98529645 23.86653897 -1.99765785 22.51823155 -2.00976562 21.16992188 C-2.03464038 19.04768644 -2.0626867 16.92558801 -2.09594727 14.8034668 C-2.12607554 12.75308334 -2.14389554 10.70287735 -2.16015625 8.65234375 C-2.17699463 7.42507568 -2.19383301 6.19780762 -2.21118164 4.93334961 C-2 2 -2 2 0 0 Z " fill="#F2F2F1" transform="translate(205,227)"/>
<path d="M0 0 C0.66 0 1.32 0 2 0 C1.88590318 2.10478604 1.75834639 4.20884577 1.625 6.3125 C1.55539062 7.48425781 1.48578125 8.65601563 1.4140625 9.86328125 C1 13 1 13 -1 16 C-4.5625 16.25 -4.5625 16.25 -8 16 C-9 15 -9 15 -9.25 12.1875 C-8.97253 8.64975756 -8.67535978 7.31864514 -6 5 C-2.8125 4.75 -2.8125 4.75 0 5 C0 3.35 0 1.7 0 0 Z " fill="#636364" transform="translate(409,315)"/>
<path d="M0 0 C1.670625 0.061875 1.670625 0.061875 3.375 0.125 C3.375 0.785 3.375 1.445 3.375 2.125 C4.695 2.125 6.015 2.125 7.375 2.125 C8.33429637 5.85559699 8.22176067 8.39298075 7.375 12.125 C5.38697422 11.42034531 3.40966272 10.68540302 1.4375 9.9375 C0.33535156 9.53144531 -0.76679688 9.12539062 -1.90234375 8.70703125 C-4.625 7.125 -4.625 7.125 -5.62890625 4.57421875 C-5.62209905 0.30610537 -4.0159931 0.13848252 0 0 Z " fill="#E0E2E6" transform="translate(255.625,228.875)"/>
<path d="M0 0 C0.66 0.33 1.32 0.66 2 1 C1.67 1.66 1.34 2.32 1 3 C0.34 3 -0.32 3 -1 3 C-1 3.66 -1 4.32 -1 5 C-0.071875 4.649375 0.85625 4.29875 1.8125 3.9375 C5 3 5 3 8 4 C8 4.66 8 5.32 8 6 C9.65 6 11.3 6 13 6 C13 6.33 13 6.66 13 7 C10.69 7 8.38 7 6 7 C6 7.66 6 8.32 6 9 C6.99 9 7.98 9 9 9 C9 10.65 9 12.3 9 14 C1.64321608 14.48241206 1.64321608 14.48241206 -1 12.5 C-2.48256965 8.79357588 -2.32168896 5.98894311 -2 2 C-1.34 1.34 -0.68 0.68 0 0 Z " fill="#D2D7E0" transform="translate(172,276)"/>
<path d="M0 0 C1.32 0 2.64 0 4 0 C4 7.26 4 14.52 4 22 C2.68 22 1.36 22 0 22 C-2.56771603 18.69865082 -3 17.27125508 -3 13 C-2.34 13 -1.68 13 -1 13 C-0.67 8.71 -0.34 4.42 0 0 Z " fill="#5B71A3" transform="translate(224,272)"/>
<path d="M0 0 C0 3.63 0 7.26 0 11 C-7.75 11.125 -7.75 11.125 -10 10 C-10.32152515 6.46322336 -10.4131192 4.6037896 -8.375 1.625 C-5.3962104 -0.4131192 -3.53677664 -0.32152515 0 0 Z " fill="#575759" transform="translate(384,320)"/>
<path d="M0 0 C1.32 0 2.64 0 4 0 C4 7.26 4 14.52 4 22 C2.68 22 1.36 22 0 22 C0 18.04 0 14.08 0 10 C-3.3 10 -6.6 10 -10 10 C-10 9.67 -10 9.34 -10 9 C-6.7 9 -3.4 9 0 9 C0 6.03 0 3.06 0 0 Z " fill="#586EA2" transform="translate(338,272)"/>
<path d="M0 0 C0.9075 0.103125 1.815 0.20625 2.75 0.3125 C2.7770043 1.77073212 2.79639787 3.22910675 2.8125 4.6875 C2.82410156 5.49960937 2.83570313 6.31171875 2.84765625 7.1484375 C2.75 9.3125 2.75 9.3125 1.75 11.3125 C-1.22 11.3125 -4.19 11.3125 -7.25 11.3125 C-7.5934538 7.62037163 -7.471621 5.70459869 -5.625 2.4375 C-3.25 0.3125 -3.25 0.3125 0 0 Z " fill="#59595A" transform="translate(325.25,319.6875)"/>
<path d="M0 0 C8.875 0.875 8.875 0.875 10 2 C10.23529412 7.52941176 10.23529412 7.52941176 9 10 C6.03 10 3.06 10 0 10 C0 6.7 0 3.4 0 0 Z " fill="#E2E4E7" transform="translate(446,229)"/>
<path d="M0 0 C0 3.63 0 7.26 0 11 C-2.97 11 -5.94 11 -9 11 C-9.36180905 3.64321608 -9.36180905 3.64321608 -7.875 1 C-5.21065116 -0.42098605 -2.96508915 -0.19767261 0 0 Z " fill="#585859" transform="translate(443,320)"/>
<path d="M0 0 C2.9375 0.1875 2.9375 0.1875 3.9375 1.1875 C4.29647436 7.64903846 4.29647436 7.64903846 1.9375 11.1875 C-1.125 11.4375 -1.125 11.4375 -4.0625 11.1875 C-5.95738952 9.29261048 -5.24269112 6.61610854 -5.29296875 4.09765625 C-4.86465766 0.54775585 -3.34858124 0.20501518 0 0 Z " fill="#606062" transform="translate(268.0625,319.8125)"/>
<path d="M0 0 C2.475 0.99 2.475 0.99 5 2 C5.66 1.34 6.32 0.68 7 0 C11.40774487 10.37357631 11.40774487 10.37357631 12 16 C10.35 15.67 8.7 15.34 7 15 C6.80508548 13.54263913 6.61930642 12.08405407 6.4375 10.625 C6.33308594 9.81289063 6.22867187 9.00078125 6.12109375 8.1640625 C6 6 6 6 7 4 C6.34 4 5.68 4 5 4 C5 5.32 5 6.64 5 8 C2.69 8 0.38 8 -2 8 C-1.34 5.36 -0.68 2.72 0 0 Z " fill="#6377A7" transform="translate(282,278)"/>
<path d="M0 0 C0.99 0 1.98 0 3 0 C3 2.31 3 4.62 3 7 C5.31 7 7.62 7 10 7 C10 4.69 10 2.38 10 0 C10.66 0 11.32 0 12 0 C12.11138159 5.45769811 11.91657981 10.61509359 11 16 C10.34 16 9.68 16 9 16 C9 13.69 9 11.38 9 9 C6.36 9 3.72 9 1 9 C1 11.31 1 13.62 1 16 C0.34 16 -0.32 16 -1 16 C-0.67 10.72 -0.34 5.44 0 0 Z " fill="#575758" transform="translate(292,315)"/>
<path d="M0 0 C0.33 0 0.66 0 1 0 C1.33 1.98 1.66 3.96 2 6 C2.66 6 3.32 6 4 6 C4 4.02 4 2.04 4 0 C4.33 0 4.66 0 5 0 C5.42056594 3.43462183 5.63981991 5.99485082 3.734375 8.98828125 C-0.19900722 13.59950361 -0.19900722 13.59950361 -3 15 C-5.05859375 14.984375 -5.05859375 14.984375 -7.4375 14.75 C-8.61119141 14.64945312 -8.61119141 14.64945312 -9.80859375 14.546875 C-12.35962232 13.91025468 -13.33607581 12.99028875 -15 11 C-14.01 11 -13.02 11 -12 11 C-11.67 10.34 -11.34 9.68 -11 9 C-9.6078125 9.2784375 -9.6078125 9.2784375 -8.1875 9.5625 C-4.98656229 10.24123881 -4.98656229 10.24123881 -2 9 C-1.19436362 6.89415562 -1.19436362 6.89415562 -0.8125 4.4375 C-0.57466797 3.19806641 -0.57466797 3.19806641 -0.33203125 1.93359375 C-0.22246094 1.29550781 -0.11289062 0.65742188 0 0 Z " fill="#6B7DAC" transform="translate(365,279)"/>
<path d="M0 0 C0.33 0 0.66 0 1 0 C1 1.65 1 3.3 1 5 C3.97 5 6.94 5 10 5 C10 5.99 10 6.98 10 8 C7.36 8 4.72 8 2 8 C2 10.31 2 12.62 2 15 C4.97 15 7.94 15 11 15 C11 15.66 11 16.32 11 17 C7.04 17 3.08 17 -1 17 C-1.02684679 14.35409986 -1.04676357 11.70846904 -1.0625 9.0625 C-1.07087891 8.30775391 -1.07925781 7.55300781 -1.08789062 6.77539062 C-1.09652441 4.85005687 -1.05224333 2.92464419 -1 1 C-0.67 0.67 -0.34 0.34 0 0 Z " fill="#4A649C" transform="translate(192,276)"/>
<path d="M0 0 C1.32 0 2.64 0 4 0 C4 6.93 4 13.86 4 21 C2.68 21 1.36 21 0 21 C0 14.07 0 7.14 0 0 Z " fill="#51689D" transform="translate(414,272)"/>
<path d="M0 0 C2.05123248 2.05123248 2.64147118 3.27005063 3.625 5.9375 C3.88539063 6.62714844 4.14578125 7.31679688 4.4140625 8.02734375 C5 10 5 10 5 13 C1.52674819 14.1577506 -1.36067448 14.06866652 -5 14 C-4.71890887 12.35232753 -4.42481474 10.70686855 -4.125 9.0625 C-3.96257812 8.14597656 -3.80015625 7.22945313 -3.6328125 6.28515625 C-3.42398437 5.53105469 -3.21515625 4.77695312 -3 4 C-2.34 3.67 -1.68 3.34 -1 3 C-0.67 2.01 -0.34 1.02 0 0 Z " fill="#697CAA" transform="translate(453,272)"/>
<path d="M0 0 C0.33 0 0.66 0 1 0 C1 1.65 1 3.3 1 5 C2.65 5.33 4.3 5.66 6 6 C5.67 6.99 5.34 7.98 5 9 C6.32 8.67 7.64 8.34 9 8 C8.375 10.8125 8.375 10.8125 7 14 C3.875 15.875 3.875 15.875 1 17 C-1.125 14.3125 -1.125 14.3125 -3 11 C-2.3125 8.5 -2.3125 8.5 -1 6 C-0.62406934 4.0075675 -0.28020455 2.0081326 0 0 Z " fill="#E6E7EA" transform="translate(268,275)"/>
<path d="M0 0 C-3.98997621 3.98997621 -8.02616716 6.65777616 -13.1328125 8.97265625 C-15.0835095 9.93250907 -15.0835095 9.93250907 -16.6171875 11.62109375 C-18 13 -18 13 -20 13 C-20 13.66 -20 14.32 -20 15 C-20.66 15 -21.32 15 -22 15 C-21.48635808 11.49011356 -20.54687708 9.47130861 -17.8515625 7.1484375 C-4.82777806 -2.04252149 -4.82777806 -2.04252149 0 0 Z " fill="#DEDEDF" transform="translate(306,81)"/>
<path d="M0 0 C1.65 0 3.3 0 5 0 C5 4.95 5 9.9 5 15 C3.35 15.33 1.7 15.66 0 16 C0 10.72 0 5.44 0 0 Z " fill="#476199" transform="translate(428,225)"/>
<path d="M0 0 C0.33 0 0.66 0 1 0 C1 7.59 1 15.18 1 23 C-2.16130459 18.78492722 -2.3367697 17.93928888 -2 13 C-2.66 13 -3.32 13 -4 13 C-4.33 13.66 -4.66 14.32 -5 15 C-5.66 14.67 -6.32 14.34 -7 14 C-5.23570801 9.02790438 -2.6060834 4.56561939 0 0 Z " fill="#DCDFE7" transform="translate(196,234)"/>
<path d="M0 0 C0.66 0 1.32 0 2 0 C2 4.29 2 8.58 2 13 C2.99 13.33 3.98 13.66 5 14 C5.66 13.67 6.32 13.34 7 13 C7.62669199 10.83532539 8.15427374 8.64135476 8.625 6.4375 C8.88539063 5.23996094 9.14578125 4.04242188 9.4140625 2.80859375 C9.60742188 1.88175781 9.80078125 0.95492188 10 0 C10.66 0 11.32 0 12 0 C11.88529863 1.75070517 11.75780972 3.50057536 11.625 5.25 C11.55539063 6.22453125 11.48578125 7.1990625 11.4140625 8.203125 C11.01089652 10.92639708 10.47210492 12.69123113 9 15 C6.23749964 16.38125018 4.05268901 16.19079306 1 16 C-1 14 -1 14 -1.23046875 11.7578125 C-1.21628906 10.88898438 -1.20210937 10.02015625 -1.1875 9.125 C-1.18105469 8.26132812 -1.17460937 7.39765625 -1.16796875 6.5078125 C-1.01393667 4.20807774 -0.64161776 2.20716511 0 0 Z " fill="#4B4A4B" transform="translate(182,315)"/>
<path d="M0 0 C8.8590604 -0.29530201 8.8590604 -0.29530201 12 2 C14.67927341 6.01891012 14.15601248 8.24161923 14 13 C13.01 13.33 12.02 13.66 11 14 C10.9175 12.906875 10.835 11.81375 10.75 10.6875 C10.32833013 7.06870972 10.32833013 7.06870972 8.375 5.125 C5.28702146 3.66227332 2.38274486 3.32526393 -1 3 C-0.67 2.01 -0.34 1.02 0 0 Z " fill="#4F669A" transform="translate(355,272)"/>
<path d="M0 0 C0.99 0.33 1.98 0.66 3 1 C3.94921875 3.28515625 3.94921875 3.28515625 4.6875 6.0625 C5.06455078 7.44115234 5.06455078 7.44115234 5.44921875 8.84765625 C5.63097656 9.55792969 5.81273437 10.26820313 6 11 C2.7 11 -0.6 11 -4 11 C-2.25 2.25 -2.25 2.25 0 0 Z " fill="#DEE1E7" transform="translate(282,234)"/>
<path d="M0 0 C0.90105469 0.02707031 1.80210937 0.05414063 2.73046875 0.08203125 C3.76107422 0.13423828 3.76107422 0.13423828 4.8125 0.1875 C4.8125 1.5075 4.8125 2.8275 4.8125 4.1875 C2.1725 4.1875 -0.4675 4.1875 -3.1875 4.1875 C-3.43780977 6.60369823 -3.43780977 6.60369823 -3.1875 9.1875 C-2.1975 9.8475 -1.2075 10.5075 -0.1875 11.1875 C-3.0625 11.375 -3.0625 11.375 -6.1875 11.1875 C-8.34252531 7.95496204 -8.65606135 6.93599077 -8.1875 3.1875 C-5.81463427 -0.07712899 -3.9045602 -0.15212572 0 0 Z " fill="#586D9E" transform="translate(382.1875,271.8125)"/>
<path d="M0 0 C0.66 0 1.32 0 2 0 C2 0.66 2 1.32 2 2 C7.445 1.505 7.445 1.505 13 1 C17 7.75 17 7.75 17 10 C15.35 10 13.7 10 12 10 C11.67 8.02 11.34 6.04 11 4 C7.7 4 4.4 4 1 4 C0.67 4.99 0.34 5.98 0 7 C-1.04449911 3.86650268 -0.93423645 3.01031744 0 0 Z " fill="#455F97" transform="translate(445,284)"/>
<path d="M0 0 C0.625 1.875 0.625 1.875 1 4 C-1 6 -1 6 -3.625 6.125 C-4.40875 6.08375 -5.1925 6.0425 -6 6 C-6 6.99 -6 7.98 -6 9 C-2.535 8.505 -2.535 8.505 1 8 C1 8.66 1 9.32 1 10 C-2.375 10.625 -2.375 10.625 -6 11 C-8 9 -8 9 -8.3125 6.0625 C-8 3 -8 3 -6.8125 1.125 C-4.43963721 -0.34781139 -2.74086056 -0.22223194 0 0 Z " fill="#808082" transform="translate(315,320)"/>
<path d="M0 0 C3.71423292 3.20192493 5.3324251 6.41416902 7 11 C7 11.99 7 12.98 7 14 C3.7 14 0.4 14 -3 14 C-3 13.67 -3 13.34 -3 13 C-1.35 13 0.3 13 2 13 C0.75023244 9.34683329 0.32901247 8.21934164 -3 6 C-2.01 4.02 -1.02 2.04 0 0 Z " fill="#DBDEE3" transform="translate(363,98)"/>
<path d="M0 0 C0.94875 0.04125 1.8975 0.0825 2.875 0.125 C3.205 1.445 3.535 2.765 3.875 4.125 C0.875 6.125 0.875 6.125 -3.125 6.125 C-2.795 7.115 -2.465 8.105 -2.125 9.125 C-0.475 8.795 1.175 8.465 2.875 8.125 C2.545 9.115 2.215 10.105 1.875 11.125 C-0.12454746 11.16754356 -2.12541636 11.16580783 -4.125 11.125 C-6.01988952 9.23011048 -5.30519112 6.55360854 -5.35546875 4.03515625 C-4.9210756 0.43484692 -3.39285056 0.13571402 0 0 Z " fill="#818183" transform="translate(230.125,319.875)"/>
<path d="M0 0 C0.99 0 1.98 0 3 0 C3 6.93 3 13.86 3 21 C2.01 21 1.02 21 0 21 C0 14.07 0 7.14 0 0 Z " fill="#4C659D" transform="translate(324,272)"/>
<path d="M0 0 C2.97 0 5.94 0 9 0 C9 3.63 9 7.26 9 11 C8.34 11 7.68 11 7 11 C7 8.03 7 5.06 7 2 C6.01 2.33 5.02 2.66 4 3 C3.19787372 4.87387216 3.19787372 4.87387216 2.8125 7.0625 C2.65394531 7.79597656 2.49539063 8.52945312 2.33203125 9.28515625 C2.22246094 9.85105469 2.11289062 10.41695313 2 11 C1.01 11 0.02 11 -1 11 C-0.67 7.37 -0.34 3.74 0 0 Z " fill="#5F5F61" transform="translate(388,320)"/>
<path d="M0 0 C6.15234375 -0.09765625 6.15234375 -0.09765625 8 0 C9 1 9 1 9.125 4.375 C9 8 9 8 8 11 C7.34 11 6.68 11 6 11 C6 8.03 6 5.06 6 2 C2.13892543 4.57404971 2.05680308 6.61020259 1 11 C0.34 11 -0.32 11 -1 11 C-0.67 7.37 -0.34 3.74 0 0 Z " fill="#646464" transform="translate(197,320)"/>
<path d="M0 0 C2.875 0.375 2.875 0.375 4.875 1.375 C4.875 2.035 4.875 2.695 4.875 3.375 C3.76125 3.33375 2.6475 3.2925 1.5 3.25 C-2.16866025 2.96378141 -2.16866025 2.96378141 -4.125 5.375 C-4.36712873 7.35628508 -4.36712873 7.35628508 -4.25 9.5 C-4.188125 11.418125 -4.188125 11.418125 -4.125 13.375 C-0.83803767 14.17453138 0.58523192 14.47158936 3.875 13.375 C3.875 14.365 3.875 15.355 3.875 16.375 C2.41757537 16.45596803 0.95887193 16.51417774 -0.5 16.5625 C-1.31210937 16.59730469 -2.12421875 16.63210938 -2.9609375 16.66796875 C-3.67507813 16.57128906 -4.38921875 16.47460938 -5.125 16.375 C-7.59272206 12.6734169 -7.79329025 9.66876485 -7.125 5.375 C-5.10395416 1.64383844 -4.25961698 0.51115404 0 0 Z " fill="#525253" transform="translate(427.125,314.625)"/>
<path d="M0 0 C8.35010941 3.95623632 8.35010941 3.95623632 11.0625 8.3125 C11.371875 9.199375 11.68125 10.08625 12 11 C8.8125 11.5 8.8125 11.5 5 11 C1.9480455 7.75918693 0 4.47704653 0 0 Z " fill="#486198" transform="translate(453,246)"/>
<path d="M0 0 C4.29 0 8.58 0 13 0 C13 0.99 13 1.98 13 3 C9.7 3 6.4 3 3 3 C3 4.65 3 6.3 3 8 C2.01 8.99 1.02 9.98 0 11 C0 7.37 0 3.74 0 0 Z " fill="#50689E" transform="translate(235,272)"/>
<path d="M0 0 C1.32 0 2.64 0 4 0 C4 0.66 4 1.32 4 2 C7.3 2 10.6 2 14 2 C12.73577236 4.52845528 11.47154472 4.76422764 9 6 C8.67 6.66 8.34 7.32 8 8 C4.26512223 7.5020163 2.18762365 7.12508244 -1 5 C-0.67 3.35 -0.34 1.7 0 0 Z " fill="#586FA2" transform="translate(244,249)"/>
<path d="M0 0 C2.64 0 5.28 0 8 0 C8 3.63 8 7.26 8 11 C7.34 11 6.68 11 6 11 C6 8.03 6 5.06 6 2 C3.93704708 3.10709491 3.93704708 3.10709491 2 5 C1.19053578 8.10197397 1.19053578 8.10197397 1 11 C0.34 11 -0.32 11 -1 11 C-1.125 3.375 -1.125 3.375 0 0 Z " fill="#5A5A5B" transform="translate(346,320)"/>
<path d="M0 0 C3 1 3 1 4 3 C4.27561452 6.16956698 4.27003767 8.37553788 3 11.3125 C-0.09727571 13.92582638 -3.00230208 13.73785587 -7 14 C-7 13.01 -7 12.02 -7 11 C-5.02 10.67 -3.04 10.34 -1 10 C-0.67 8.02 -0.34 6.04 0 4 C0.66 4 1.32 4 2 4 C2 3.34 2 2.68 2 2 C1.34 2 0.68 2 0 2 C0 1.34 0 0.68 0 0 Z " fill="#556C9F" transform="translate(404,272)"/>
<path d="M0 0 C2.74086056 -0.22223194 4.43963721 -0.34781139 6.8125 1.125 C8.57844751 3.91333817 8.46181576 5.76728968 8 9 C6 11.375 6 11.375 4 13 C3.34 12.67 2.68 12.34 2 12 C2 11.01 2 10.02 2 9 C2.66 9 3.32 9 4 9 C4 7.02 4 5.04 4 3 C2.68 2.67 1.36 2.34 0 2 C0 1.34 0 0.68 0 0 Z " fill="#4F679C" transform="translate(260,272)"/>
<path d="M0 0 C0.33 0 0.66 0 1 0 C1 2.97 1 5.94 1 9 C3.97 9.495 3.97 9.495 7 10 C6.34 11.32 5.68 12.64 5 14 C2.36 13.67 -0.28 13.34 -3 13 C-3 11.35 -3 9.7 -3 8 C-2.34 8 -1.68 8 -1 8 C-0.67 5.36 -0.34 2.72 0 0 Z M-1 14 C0.65 14 2.3 14 4 14 C3.34 14.66 2.68 15.32 2 16 C1.01 16 0.02 16 -1 16 C-1 15.34 -1 14.68 -1 14 Z " fill="#F4F4F3" transform="translate(195,248)"/>
<path d="M0 0 C0 0.66 0 1.32 0 2 C-0.66 2 -1.32 2 -2 2 C-2.144375 2.639375 -2.28875 3.27875 -2.4375 3.9375 C-3 6 -3 6 -4 7 C-6.5 7.125 -6.5 7.125 -9 7 C-10 6 -10 6 -10.0625 3.4375 C-10.041875 2.633125 -10.02125 1.82875 -10 1 C-6.78548731 -0.60725635 -3.56387464 -0.05748185 0 0 Z " fill="#767678" transform="translate(368,320)"/>
<path d="M0 0 C0.99 0 1.98 0 3 0 C3 5.94 3 11.88 3 18 C2.01 18 1.02 18 0 18 C0 12.06 0 6.12 0 0 Z " fill="#4A629A" transform="translate(430,275)"/>
<path d="M0 0 C1.99954746 -0.04254356 4.00041636 -0.04080783 6 0 C7 1 7 1 7.125 4 C7 7 7 7 6 8 C4.00041636 8.04080783 1.99954746 8.04254356 0 8 C0 5.36 0 2.72 0 0 Z " fill="#DBDDE3" transform="translate(397,275)"/>
<path d="M0 0 C2.31 0.33 4.62 0.66 7 1 C7 2.98 7 4.96 7 7 C4.69 7.33 2.38 7.66 0 8 C0 5.36 0 2.72 0 0 Z " fill="#C4CBD9" transform="translate(257,274)"/>
<path d="M0 0 C0.495 1.98 0.495 1.98 1 4 C-13.85 4 -28.7 4 -44 4 C-44 3.67 -44 3.34 -44 3 C-30.14 3 -16.28 3 -2 3 C-2 2.34 -2 1.68 -2 1 C-1.34 0.67 -0.68 0.34 0 0 Z " fill="#445E95" transform="translate(371,120)"/>
<path d="M0 0 C0.78375 0.04125 1.5675 0.0825 2.375 0.125 C2.705 1.445 3.035 2.765 3.375 4.125 C2.385 4.125 1.395 4.125 0.375 4.125 C0.705 3.465 1.035 2.805 1.375 2.125 C-0.275 2.455 -1.925 2.785 -3.625 3.125 C-3.625 3.785 -3.625 4.445 -3.625 5.125 C-2.635 5.455 -1.645 5.785 -0.625 6.125 C-1.615 6.125 -2.605 6.125 -3.625 6.125 C-3.625 7.115 -3.625 8.105 -3.625 9.125 C-0.16 8.63 -0.16 8.63 3.375 8.125 C3.045 9.115 2.715 10.105 2.375 11.125 C-0.5 11.25 -0.5 11.25 -3.625 11.125 C-4.285 10.465 -4.945 9.805 -5.625 9.125 C-4.99018771 0.23762799 -4.99018771 0.23762799 0 0 Z " fill="#58585A" transform="translate(460.625,319.875)"/>
<path d="M0 0 C0.99 -0.33 1.98 -0.66 3 -1 C2.67 0.65 2.34 2.3 2 4 C-0.90541905 4.96847302 -2.96637454 5.19582812 -6 5.25 C-6.86625 5.27578125 -7.7325 5.3015625 -8.625 5.328125 C-11.42903194 4.94072585 -12.26286782 4.17141522 -14 2 C-12.68 2 -11.36 2 -10 2 C-10 2.66 -10 3.32 -10 4 C-8.68 4 -7.36 4 -6 4 C-6.33 2.68 -6.66 1.36 -7 0 C-3.98968256 -0.93423645 -3.13349732 -1.04449911 0 0 Z " fill="#556B9F" transform="translate(425,252)"/>
<path d="M0 0 C0.33 2.31 0.66 4.62 1 7 C0.01 6.67 -0.98 6.34 -2 6 C-2.33 6.66 -2.66 7.32 -3 8 C-3 7.34 -3 6.68 -3 6 C-3.66 6 -4.32 6 -5 6 C-5.33 6.66 -5.66 7.32 -6 8 C-6.99 7.67 -7.98 7.34 -9 7 C-8.8125 4.625 -8.8125 4.625 -8 2 C-5.11090151 0.40339294 -3.30941204 0 0 0 Z " fill="#4C649A" transform="translate(287,225)"/>
<path d="M0 0 C0.99 0.495 0.99 0.495 2 1 C2.99 0.67 3.98 0.34 5 0 C4.88529863 1.75070517 4.75780972 3.50057536 4.625 5.25 C4.55539062 6.22453125 4.48578125 7.1990625 4.4140625 8.203125 C4.01534751 10.89633189 3.36492937 12.66963279 2 15 C2 14.34 2 13.68 2 13 C1.34 13 0.68 13 0 13 C0 8.71 0 4.42 0 0 Z " fill="#E7E7E8" transform="translate(443,320)"/>
<path d="M0 0 C0.66 0 1.32 0 2 0 C2 1.32 2 2.64 2 4 C5.3 4 8.6 4 12 4 C12 4.99 12 5.98 12 7 C7.71 7 3.42 7 -1 7 C-1 1 -1 1 0 0 Z " fill="#536BA0" transform="translate(236,286)"/>
<path d="M0 0 C0.66 1.32 1.32 2.64 2 4 C1.01 4.66 0.02 5.32 -1 6 C-1.33 6.99 -1.66 7.98 -2 9 C-4.21701147 10.58965571 -6.57862473 11.72327486 -9 13 C-9.66 12.34 -10.32 11.68 -11 11 C-9.71034824 9.62437146 -8.37310707 8.29233607 -7 7 C-6.34 7 -5.68 7 -5 7 C-5 6.34 -5 5.68 -5 5 C-4.34 5 -3.68 5 -3 5 C-2.690625 4.360625 -2.38125 3.72125 -2.0625 3.0625 C-1 1 -1 1 0 0 Z " fill="#E0E2E6" transform="translate(373,171)"/>
<path d="M0 0 C0.99 0 1.98 0 3 0 C3 2.97 3 5.94 3 9 C3.66 9.33 4.32 9.66 5 10 C4.01 10 3.02 10 2 10 C2 10.66 2 11.32 2 12 C0 11 0 11 -2 9 C-2.01691537 6.24279442 -1.47716181 3.73283582 -1 1 C-0.67 0.67 -0.34 0.34 0 0 Z " fill="#E0E0E1" transform="translate(392,322)"/>
<path d="M0 0 C0.99 0 1.98 0 3 0 C3.2358396 5.77807024 2.86783046 10.51324804 1 16 C0.34 16 -0.32 16 -1 16 C-1.02712153 14.083412 -1.04645097 12.1667127 -1.0625 10.25 C-1.07410156 9.18265625 -1.08570313 8.1153125 -1.09765625 7.015625 C-1.01510087 4.46631499 -0.74617558 2.42066409 0 0 Z " fill="#878789" transform="translate(339,315)"/>
<path d="M0 0 C0.99 0.33 1.98 0.66 3 1 C3.66 0.67 4.32 0.34 5 0 C5.33292585 4.24480464 5.43885872 6.35542625 3 9.9375 C2.34 10.618125 1.68 11.29875 1 12 C0.34 11.67 -0.32 11.34 -1 11 C-0.67 10.34 -0.34 9.68 0 9 C-0.99 8.67 -1.98 8.34 -3 8 C-2.01 7.67 -1.02 7.34 0 7 C0 4.69 0 2.38 0 0 Z " fill="#4E679F" transform="translate(235,240)"/>
<path d="M0 0 C1.32 0 2.64 0 4 0 C4 0.66 4 1.32 4 2 C3.01 2 2.02 2 1 2 C1 2.99 1 3.98 1 5 C1.66 5.33 2.32 5.66 3 6 C2.01 6 1.02 6 0 6 C-0.04898437 6.85464844 -0.09796875 7.70929688 -0.1484375 8.58984375 C-0.22320312 9.69457031 -0.29796875 10.79929687 -0.375 11.9375 C-0.47941406 13.59072266 -0.47941406 13.59072266 -0.5859375 15.27734375 C-0.72257812 16.17582031 -0.85921875 17.07429688 -1 18 C-1.66 18.33 -2.32 18.66 -3 19 C-3.0814222 16.77144426 -3.13938079 14.54202345 -3.1875 12.3125 C-3.22230469 11.07113281 -3.25710937 9.82976562 -3.29296875 8.55078125 C-2.9811118 4.77107501 -2.4510186 2.88063534 0 0 Z " fill="#585859" transform="translate(258,315)"/>
<path d="M0 0 C2.31 0 4.62 0 7 0 C6.360625 0.28875 5.72125 0.5775 5.0625 0.875 C2.84793921 1.82823451 2.84793921 1.82823451 2 4 C1.34 3.67 0.68 3.34 0 3 C-0.33 4.65 -0.66 6.3 -1 8 C0.98 7.67 2.96 7.34 5 7 C5 7.99 5 8.98 5 10 C2.64561267 11.42944945 1.51967567 12.08661261 -1.25 11.625 C-1.8275 11.41875 -2.405 11.2125 -3 11 C-2.44894091 7.0507432 -1.61064629 3.65079826 0 0 Z " fill="#6D81AD" transform="translate(279,224)"/>
<path d="M0 0 C3.3 0 6.6 0 10 0 C9.67 0.99 9.34 1.98 9 3 C5.5625 4.125 5.5625 4.125 2 5 C1.01 5.495 1.01 5.495 0 6 C-1.99960012 6.039992 -4.00047242 6.04346799 -6 6 C-5.67 5.34 -5.34 4.68 -5 4 C-3.02 4.495 -3.02 4.495 -1 5 C-0.67 3.35 -0.34 1.7 0 0 Z " fill="#CDD1DB" transform="translate(446,288)"/>
<path d="M0 0 C2.64 0.33 5.28 0.66 8 1 C7.67 2.32 7.34 3.64 7 5 C7.66 5.33 8.32 5.66 9 6 C8.34 6.66 7.68 7.32 7 8 C4.36 6.68 1.72 5.36 -1 4 C-0.67 2.68 -0.34 1.36 0 0 Z " fill="#D7DCE2" transform="translate(379,275)"/>
<path d="M0 0 C0.33 0 0.66 0 1 0 C1.07347656 0.99580078 1.07347656 0.99580078 1.1484375 2.01171875 C1.71125812 8.7112236 1.71125812 8.7112236 4 15 C2.35 15.66 0.7 16.32 -1 17 C-2.32 15.35 -3.64 13.7 -5 12 C-2 10 -2 10 0 10 C0 6.7 0 3.4 0 0 Z " fill="#6479A9" transform="translate(213,236)"/>
<path d="M0 0 C0.66 0 1.32 0 2 0 C2 1.32 2 2.64 2 4 C2.99 4.33 3.98 4.66 5 5 C4.01 5 3.02 5 2 5 C1.67 7.64 1.34 10.28 1 13 C1.99 13 2.98 13 4 13 C4 13.66 4 14.32 4 15 C2.35 15 0.7 15 -1 15 C-1.33 11.37 -1.66 7.74 -2 4 C-1.34 4 -0.68 4 0 4 C0 2.68 0 1.36 0 0 Z " fill="#535353" transform="translate(218,316)"/>
<path d="M0 0 C1.32 0.33 2.64 0.66 4 1 C4.125 7.625 4.125 7.625 3 11 C1.35 10.67 -0.3 10.34 -2 10 C-1.34 6.7 -0.68 3.4 0 0 Z " fill="#DEDEDE" transform="translate(193,320)"/>
<path d="M0 0 C3.63 0 7.26 0 11 0 C11 1.32 11 2.64 11 4 C7.37 4 3.74 4 0 4 C0 2.68 0 1.36 0 0 Z " fill="#4A619A" transform="translate(355,241)"/>
<path d="M0 0 C0.02725341 1.7290774 0.04650987 3.45828176 0.0625 5.1875 C0.07410156 6.15042969 0.08570313 7.11335938 0.09765625 8.10546875 C0.00486622 10.85576513 -0.37888315 13.32479591 -1 16 C-1.33 16 -1.66 16 -2 16 C-2.33 11.71 -2.66 7.42 -3 3 C-6.3 3 -9.6 3 -13 3 C-9.64549207 -0.35450793 -4.56739027 0 0 0 Z " fill="#E4D492" transform="translate(319,80)"/>
<path d="M0 0 C0.66 0 1.32 0 2 0 C2 0.99 2 1.98 2 3 C2.99 3 3.98 3 5 3 C5 4.32 5 5.64 5 7 C2.69 7 0.38 7 -2 7 C-2.66 5.68 -3.32 4.36 -4 3 C-2.68 2.67 -1.36 2.34 0 2 C0 1.34 0 0.68 0 0 Z " fill="#E9EAEC" transform="translate(175,283)"/>
<path d="M0 0 C0.33 0.99 0.66 1.98 1 3 C1.66 3 2.32 3 3 3 C3.33 2.34 3.66 1.68 4 1 C4.66 3.97 5.32 6.94 6 10 C4.35 10 2.7 10 1 10 C-0.83691257 6.21812119 -1.15837626 4.05431692 0 0 Z " fill="#576EA2" transform="translate(292,247)"/>
<path d="M0 0 C0.66 0 1.32 0 2 0 C1.25 6.75 1.25 6.75 -1 9 C-3.625 9.125 -3.625 9.125 -6 9 C-6 7.02 -6 5.04 -6 3 C-4.35 2.67 -2.7 2.34 -1 2 C-0.67 2.66 -0.34 3.32 0 4 C0 2.68 0 1.36 0 0 Z " fill="#CDCDCD" transform="translate(463,320)"/>
<path d="M0 0 C1.32 0 2.64 0 4 0 C4.103125 0.78375 4.20625 1.5675 4.3125 2.375 C4.77595022 5.33045181 4.77595022 5.33045181 8 7 C1.125 9 1.125 9 0 9 C0 6.03 0 3.06 0 0 Z " fill="#D8D8DA" transform="translate(354,321)"/>
<path d="M0 0 C3.40424844 1.13474948 4.21653709 1.96811304 6 5 C5.67 5.99 5.34 6.98 5 8 C2.9375 8.6875 2.9375 8.6875 1 9 C1 10.65 1 12.3 1 14 C0.67 14 0.34 14 0 14 C0 9.38 0 4.76 0 0 Z " fill="#DADEE6" transform="translate(213,280)"/>
<path d="M0 0 C0.99 0 1.98 0 3 0 C3 3.96 3 7.92 3 12 C2.67 12 2.34 12 2 12 C1.67 10.68 1.34 9.36 1 8 C0.67 8.99 0.34 9.98 0 11 C-0.99 11.66 -1.98 12.32 -3 13 C-3.66 12.34 -4.32 11.68 -5 11 C-4.505 10.62875 -4.01 10.2575 -3.5 9.875 C-1.4103688 7.262961 -1.93054079 5.26458277 -2 2 C-1.34 1.34 -0.68 0.68 0 0 Z " fill="#E7E8E8" transform="translate(389,281)"/>
<path d="M0 0 C5.53846154 -0.36923077 5.53846154 -0.36923077 7.875 1.5 C8.24625 1.995 8.6175 2.49 9 3 C5.24455129 4.39737627 2.02603178 5.55917108 -2 5 C-2.66 4.01 -3.32 3.02 -4 2 C-1 2 -1 2 1 3 C0.67 2.01 0.34 1.02 0 0 Z " fill="#486299" transform="translate(219,225)"/>
<path d="M0 0 C0.33 0 0.66 0 1 0 C1 4.95 1 9.9 1 15 C2.98 14.67 4.96 14.34 7 14 C7 14.66 7 15.32 7 16 C8.32 16.33 9.64 16.66 11 17 C7.05979642 18.26086514 4.52419701 18 0 18 C0 12.06 0 6.12 0 0 Z " fill="#DBD6C2" transform="translate(325,162)"/>
<path d="M0 0 C2.31 0 4.62 0 7 0 C7 0.66 7 1.32 7 2 C6.01 2.33 5.02 2.66 4 3 C3.19787372 4.87387216 3.19787372 4.87387216 2.8125 7.0625 C2.65394531 7.79597656 2.49539063 8.52945312 2.33203125 9.28515625 C2.22246094 9.85105469 2.11289062 10.41695313 2 11 C1.01 11 0.02 11 -1 11 C-0.67 7.37 -0.34 3.74 0 0 Z " fill="#6E6E6F" transform="translate(276,320)"/>
<path d="M0 0 C0.66 0 1.32 0 2 0 C2 0.66 2 1.32 2 2 C2.99 1.67 3.98 1.34 5 1 C4.625 3.9375 4.625 3.9375 4 7 C3.01 7.495 3.01 7.495 2 8 C2 7.34 2 6.68 2 6 C1.01 5.67 0.02 5.34 -1 5 C-1.99 6.485 -1.99 6.485 -3 8 C-3.99 7.67 -4.98 7.34 -6 7 C-5.071875 6.1028125 -5.071875 6.1028125 -4.125 5.1875 C-1.86323046 2.99188856 -1.86323046 2.99188856 0 0 Z " fill="#DCE0E5" transform="translate(239,247)"/>
<path d="M0 0 C0.33 0 0.66 0 1 0 C1 3.3 1 6.6 1 10 C3.31 10 5.62 10 8 10 C7.67 11.65 7.34 13.3 7 15 C5.02 15 3.04 15 1 15 C1.33 13.68 1.66 12.36 2 11 C1.34 11 0.68 11 0 11 C0 7.37 0 3.74 0 0 Z " fill="#667AA6" transform="translate(445,229)"/>
<path d="M0 0 C2.32240046 2.85021875 3.93906527 5.46355091 5 9 C4.6546935 12.02143183 4.19398174 12.80601826 2 15 C1.86722656 14.30132812 1.73445312 13.60265625 1.59765625 12.8828125 C1.42105469 11.97273437 1.24445313 11.06265625 1.0625 10.125 C0.88847656 9.22007812 0.71445313 8.31515625 0.53515625 7.3828125 C0.10036299 5.00043683 0.10036299 5.00043683 -1 3 C-0.67 2.01 -0.34 1.02 0 0 Z " fill="#566DA1" transform="translate(173,225)"/>
<path d="M0 0 C0.99 0 1.98 0 3 0 C2.50130596 5.36891879 1.97772468 10.69235173 1 16 C0.34 16 -0.32 16 -1 16 C-0.67 10.72 -0.34 5.44 0 0 Z " fill="#59595B" transform="translate(244,315)"/>
<path d="M0 0 C3.63 0 7.26 0 11 0 C11 0.66 11 1.32 11 2 C11.66 2 12.32 2 13 2 C13 2.66 13 3.32 13 4 C12.484375 3.835 11.96875 3.67 11.4375 3.5 C8.26636124 2.84951 5.22781666 2.9379266 2 3 C2 4.32 2 5.64 2 7 C1.34 7 0.68 7 0 7 C0 4.69 0 2.38 0 0 Z " fill="#465D96" transform="translate(393,272)"/>
<path d="M0 0 C0.66 0 1.32 0 2 0 C2 2.97 2 5.94 2 9 C2.66 9 3.32 9 4 9 C4 7.68 4 6.36 4 5 C4.99 4.67 5.98 4.34 7 4 C5.7874262 7.72433382 4.49140021 11.37802806 3 15 C2.71125 14.360625 2.4225 13.72125 2.125 13.0625 C1.17176549 10.84793921 1.17176549 10.84793921 -1 10 C-0.9278125 9.36191406 -0.855625 8.72382813 -0.78125 8.06640625 C-0.6884375 7.24011719 -0.595625 6.41382813 -0.5 5.5625 C-0.4071875 4.73878906 -0.314375 3.91507813 -0.21875 3.06640625 C-0.05543721 1.5360501 -0.05543721 1.5360501 0 0 Z " fill="#D0D6E0" transform="translate(264,242)"/>
<path d="M0 0 C1.32 0 2.64 0 4 0 C3.67 1.98 3.34 3.96 3 6 C1.35 6.33 -0.3 6.66 -2 7 C-2.125 4.625 -2.125 4.625 -2 2 C-1.34 1.34 -0.68 0.68 0 0 Z " fill="#D9D9DA" transform="translate(404,322)"/>
<path d="M0 0 C1.4800841 0.11362262 2.95910074 0.24122908 4.4375 0.375 C5.26121094 0.44460938 6.08492188 0.51421875 6.93359375 0.5859375 C7.95646484 0.79089844 7.95646484 0.79089844 9 1 C9.33 1.66 9.66 2.32 10 3 C9.01 3.33 8.02 3.66 7 4 C7.33 4.66 7.66 5.32 8 6 C1.25 5.125 1.25 5.125 -1 4 C-0.67 2.68 -0.34 1.36 0 0 Z " fill="#687CA6" transform="translate(374,288)"/>
<path d="M0 0 C0.66 0 1.32 0 2 0 C1.67 5.28 1.34 10.56 1 16 C0.34 16 -0.32 16 -1 16 C-1.02701408 13.89590361 -1.04640223 11.79170822 -1.0625 9.6875 C-1.07410156 8.51574219 -1.08570313 7.34398437 -1.09765625 6.13671875 C-1 3 -1 3 0 0 Z " fill="#595959" transform="translate(333,315)"/>
<path d="M0 0 C0.66 0 1.32 0 2 0 C1.88590318 2.10478604 1.75834639 4.20884577 1.625 6.3125 C1.55539062 7.48425781 1.48578125 8.65601563 1.4140625 9.86328125 C1 13 1 13 -1 16 C-1.03738281 15.37351562 -1.07476562 14.74703125 -1.11328125 14.1015625 C-1.17902344 13.28429687 -1.24476563 12.46703125 -1.3125 11.625 C-1.37050781 10.81289063 -1.42851562 10.00078125 -1.48828125 9.1640625 C-1.82990528 6.62078662 -1.82990528 6.62078662 -5 5 C-3.35 5 -1.7 5 0 5 C0 3.35 0 1.7 0 0 Z " fill="#4A4A4B" transform="translate(409,315)"/>
<path d="M0 0 C1.5625 1.1875 1.5625 1.1875 3 3 C2.6875 5.6875 2.6875 5.6875 2 8 C0.35 8.33 -1.3 8.66 -3 9 C-2.44271087 5.65626525 -1.64826111 2.96687001 0 0 Z " fill="#697CAA" transform="translate(276,285)"/>
<path d="M0 0 C1.32 0.66 2.64 1.32 4 2 C3.67 2.99 3.34 3.98 3 5 C2.34 5 1.68 5 1 5 C2.15173355 7.46800047 3.04783565 9.04783565 5 11 C3.35 11 1.7 11 0 11 C0 10.01 0 9.02 0 8 C-0.66 8 -1.32 8 -2 8 C-2.33 6.68 -2.66 5.36 -3 4 C-2.34 4 -1.68 4 -1 4 C-0.67 2.68 -0.34 1.36 0 0 Z " fill="#697CAB" transform="translate(182,242)"/>
<path d="M0 0 C0.66 0.33 1.32 0.66 2 1 C2 3.64 2 6.28 2 9 C1.01 9.495 1.01 9.495 0 10 C-0.66 9.67 -1.32 9.34 -2 9 C-2 6.36 -2 3.72 -2 1 C-1.34 0.67 -0.68 0.34 0 0 Z " fill="#465F98" transform="translate(247,228)"/>
<path d="M0 0 C-0.66 0 -1.32 0 -2 0 C-2 0.66 -2 1.32 -2 2 C-5.82989106 3.80230168 -8.78121808 4.19622241 -13 4 C-13 3.34 -13 2.68 -13 2 C-11.5882217 1.46605821 -10.17029756 0.94834896 -8.75 0.4375 C-7.96109375 0.14746094 -7.1721875 -0.14257812 -6.359375 -0.44140625 C-3.80896548 -1.04522837 -2.44677771 -0.8473932 0 0 Z " fill="#E6E5E0" transform="translate(345,174)"/>
<path d="M0 0 C0.33 1.32 0.66 2.64 1 4 C1.99 3.01 2.98 2.02 4 1 C3.01 4.63 2.02 8.26 1 12 C0.34 11.34 -0.32 10.68 -1 10 C-1.66 10.99 -2.32 11.98 -3 13 C-2.45144652 8.428721 -1.58255197 4.32564205 0 0 Z " fill="#CFD2D0" transform="translate(274,106)"/>
<path d="M0 0 C1.32 0 2.64 0 4 0 C4 1.98 4 3.96 4 6 C2.35 6.33 0.7 6.66 -1 7 C-1.04254356 5.00045254 -1.04080783 2.99958364 -1 1 C-0.67 0.67 -0.34 0.34 0 0 Z " fill="#E6E6E7" transform="translate(266,322)"/>
<path d="M0 0 C1.18224668 3.54674003 0.89329634 5.97522995 0.5625 9.6875 C0.46066406 10.86699219 0.35882813 12.04648437 0.25390625 13.26171875 C0.17011719 14.16535156 0.08632813 15.06898438 0 16 C-0.33 16 -0.66 16 -1 16 C-1.33 13.03 -1.66 10.06 -2 7 C-2.66 7.66 -3.32 8.32 -4 9 C-4 7.68 -4 6.36 -4 5 C-5.65 5 -7.3 5 -9 5 C-9 4.67 -9 4.34 -9 4 C-6.69 4 -4.38 4 -2 4 C-1.67 3.01 -1.34 2.02 -1 1 C-0.67 0.67 -0.34 0.34 0 0 Z " fill="#D0D0D0" transform="translate(332,315)"/>
<path d="M0 0 C0 2.64 0 5.28 0 8 C-0.99 8.495 -0.99 8.495 -2 9 C-2.33 8.34 -2.66 7.68 -3 7 C-3.99 7.33 -4.98 7.66 -6 8 C-6.33 6.68 -6.66 5.36 -7 4 C-6.01 4 -5.02 4 -4 4 C-3.67 3.01 -3.34 2.02 -3 1 C-1 0 -1 0 0 0 Z " fill="#F4F3F4" transform="translate(209,275)"/>
<path d="M0 0 C2.64 0 5.28 0 8 0 C8 0.33 8 0.66 8 1 C6.35 1 4.7 1 3 1 C3 1.99 3 2.98 3 4 C5.31 4.33 7.62 4.66 10 5 C10 5.33 10 5.66 10 6 C6.7 6 3.4 6 0 6 C0 4.02 0 2.04 0 0 Z " fill="#DDE3E8" transform="translate(194,284)"/>
<path d="M0 0 C0 1.65 0 3.3 0 5 C-2.64 4.34 -5.28 3.68 -8 3 C-8 2.01 -8 1.02 -8 0 C-4.71303767 -0.79953138 -3.28976808 -1.09658936 0 0 Z " fill="#F4F3F3" transform="translate(205,285)"/>
<path d="M0 0 C-0.33 0.639375 -0.66 1.27875 -1 1.9375 C-2.07271225 3.76794567 -2.07271225 3.76794567 -2 5 C-4.75 5.3125 -4.75 5.3125 -8 5 C-10.375 2.5 -10.375 2.5 -12 0 C-10.37585622 -0.19477739 -8.75063577 -0.38059458 -7.125 -0.5625 C-6.22007812 -0.66691406 -5.31515625 -0.77132813 -4.3828125 -0.87890625 C-2 -1 -2 -1 0 0 Z " fill="#E3E5E7" transform="translate(338,257)"/>
<path d="M0 0 C0 2.64 0 5.28 0 8 C-0.66 7.34 -1.32 6.68 -2 6 C-2.66 7.32 -3.32 8.64 -4 10 C-4.99 9.34 -5.98 8.68 -7 8 C-6.34 8 -5.68 8 -5 8 C-4.87625 6.865625 -4.7525 5.73125 -4.625 4.5625 C-4.41875 3.386875 -4.2125 2.21125 -4 1 C-2 0 -2 0 0 0 Z " fill="#DADADB" transform="translate(345,323)"/>
<path d="M0 0 C1.32 0.33 2.64 0.66 4 1 C4 2.32 4 3.64 4 5 C2.02 5.99 2.02 5.99 0 7 C-0.66 5.68 -1.32 4.36 -2 3 C-1.34 2.01 -0.68 1.02 0 0 Z " fill="#6075A6" transform="translate(337,249)"/>
<path d="M0 0 C0.33 1.65 0.66 3.3 1 5 C0.34 5 -0.32 5 -1 5 C-1.33 5.66 -1.66 6.32 -2 7 C-2.99 7 -3.98 7 -5 7 C-5.6875 5.1875 -5.6875 5.1875 -6 3 C-4.04862098 0.26806937 -3.44686768 0 0 0 Z " fill="#EFEFED" transform="translate(257,244)"/>
<path d="M0 0 C2.97 0.495 2.97 0.495 6 1 C5.37240135 3.92879371 4.41377341 6.36095629 3 9 C0 3.375 0 3.375 0 0 Z " fill="#DADDE4" transform="translate(289,231)"/>
<path d="M0 0 C0.66 0.33 1.32 0.66 2 1 C1.67 2.32 1.34 3.64 1 5 C0.01 4.67 -0.98 4.34 -2 4 C-2.33 4.99 -2.66 5.98 -3 7 C-7.455 7.495 -7.455 7.495 -12 8 C-10.60307672 5.20615345 -8.56793257 4.91757157 -5.7890625 3.796875 C-3.59949046 2.8216071 -1.83069032 1.53777987 0 0 Z " fill="#CDD1DB" transform="translate(358,184)"/>
<path d="M0 0 C1.9375 0.6875 1.9375 0.6875 4 2 C4.75 4.625 4.75 4.625 5 7 C1.7 7 -1.6 7 -5 7 C-5 6.67 -5 6.34 -5 6 C-3.35 6 -1.7 6 0 6 C0 4.02 0 2.04 0 0 Z " fill="#D3D7DF" transform="translate(365,105)"/>
<path d="M0 0 C0.66 0 1.32 0 2 0 C2 0.66 2 1.32 2 2 C2.99 2.33 3.98 2.66 5 3 C4.01 3 3.02 3 2 3 C2 3.99 2 4.98 2 6 C5.465 5.505 5.465 5.505 9 5 C9 5.66 9 6.32 9 7 C5.625 7.625 5.625 7.625 2 8 C0 6 0 6 -0.125 2.875 C-0.08375 1.92625 -0.0425 0.9775 0 0 Z " fill="#59595A" transform="translate(307,323)"/>
<path d="M0 0 C-0.33 2.31 -0.66 4.62 -1 7 C-2.32 7.33 -3.64 7.66 -5 8 C-5.36625971 3.48279689 -5.36625971 3.48279689 -3.625 1.1875 C-2 0 -2 0 0 0 Z " fill="#DCDCDE" transform="translate(441,321)"/>
<path d="M0 0 C-0.33 2.31 -0.66 4.62 -1 7 C-2.32 7.33 -3.64 7.66 -5 8 C-5.36625971 3.48279689 -5.36625971 3.48279689 -3.625 1.1875 C-2 0 -2 0 0 0 Z " fill="#DCDCDE" transform="translate(382,321)"/>
<path d="M0 0 C0.66 0 1.32 0 2 0 C2 2.97 2 5.94 2 9 C1.01 9 0.02 9 -1 9 C-2 8 -2 8 -2.0625 5.4375 C-2.041875 4.633125 -2.02125 3.82875 -2 3 C-1.34 3 -0.68 3 0 3 C0 2.01 0 1.02 0 0 Z " fill="#50689D" transform="translate(167,277)"/>
<path d="M0 0 C0.33 1.32 0.66 2.64 1 4 C-1.31 4.66 -3.62 5.32 -6 6 C-6.66 4.68 -7.32 3.36 -8 2 C-4.77208445 -0.1519437 -3.71599191 -0.20086443 0 0 Z " fill="#5C73A6" transform="translate(235,249)"/>
<path d="M0 0 C1.4540625 0.0309375 1.4540625 0.0309375 2.9375 0.0625 C1.9784375 0.495625 1.9784375 0.495625 1 0.9375 C-1.21456079 1.89073451 -1.21456079 1.89073451 -2.0625 4.0625 C-0.0825 3.7325 1.8975 3.4025 3.9375 3.0625 C4.2675 3.7225 4.5975 4.3825 4.9375 5.0625 C2.22870665 6.41689668 -0.07183268 6.12751451 -3.0625 6.0625 C-3.44468767 4.40635343 -3.77645102 2.73792976 -4.0625 1.0625 C-3.0625 0.0625 -3.0625 0.0625 0 0 Z " fill="#5A5A5C" transform="translate(360.0625,328.9375)"/>
<path d="M0 0 C0.66 0 1.32 0 2 0 C2 2.97 2 5.94 2 9 C2.66 9.33 3.32 9.66 4 10 C3.01 10 2.02 10 1 10 C1 8.35 1 6.7 1 5 C-0.98 5.99 -0.98 5.99 -3 7 C-2.25 2.25 -2.25 2.25 0 0 Z " fill="#DEDEDE" transform="translate(350,322)"/>
<path d="M0 0 C-0.25 2.875 -0.25 2.875 -1 6 C-3.0625 7.375 -3.0625 7.375 -5 8 C-5.1875 5.125 -5.1875 5.125 -5 2 C-2 0 -2 0 0 0 Z " fill="#DCDCDE" transform="translate(326,321)"/>
<path d="M0 0 C1.98 0 3.96 0 6 0 C5.01 0.495 5.01 0.495 4 1 C1.99846531 4.17890804 1.5028359 7.31253672 1 11 C0.34 11 -0.32 11 -1 11 C-0.67 7.37 -0.34 3.74 0 0 Z " fill="#555556" transform="translate(448,320)"/>
<path d="M0 0 C0.99 0 1.98 0 3 0 C3.125 2.375 3.125 2.375 3 5 C2.34 5.66 1.68 6.32 1 7 C0.01 7 -0.98 7 -2 7 C-2.125 4.625 -2.125 4.625 -2 2 C-1.34 1.34 -0.68 0.68 0 0 Z " fill="#E5E5E7" transform="translate(240,322)"/>
<path d="M0 0 C1.98 0 3.96 0 6 0 C5.34 1.98 4.68 3.96 4 6 C2.35 6 0.7 6 -1 6 C-0.67 4.02 -0.34 2.04 0 0 Z " fill="#858588" transform="translate(173,314)"/>
<path d="M0 0 C2.79872437 2.52788007 4.45773019 4.20411134 5 8 C2.625 7.75 2.625 7.75 0 7 C-1.3125 4.9375 -1.3125 4.9375 -2 3 C-1.34 3 -0.68 3 0 3 C0 2.01 0 1.02 0 0 Z " fill="#6378A4" transform="translate(265,286)"/>
<path d="M0 0 C1.32 0 2.64 0 4 0 C5.61949011 2.57213134 6.04408751 3.67669159 5.625 6.75 C5.41875 7.4925 5.2125 8.235 5 9 C1.96130589 7.48065294 1.35589694 5.01995228 0 2 C0 1.34 0 0.68 0 0 Z " fill="#4C659B" transform="translate(282,272)"/>
<path d="M0 0 C2.475 0.99 2.475 0.99 5 2 C4.67 2.99 4.34 3.98 4 5 C4 5.99 4 6.98 4 8 C2.02 7.34 0.04 6.68 -2 6 C-1.34 4.02 -0.68 2.04 0 0 Z " fill="#5B71A5" transform="translate(323,249)"/>
<path d="M0 0 C3.17538332 0.34021964 4.02276865 1.02466604 6.25 3.4375 C8 6 8 6 8 8 C7.34 8 6.68 8 6 8 C5.67 7.34 5.34 6.68 5 6 C3.68 6 2.36 6 1 6 C0.67 4.02 0.34 2.04 0 0 Z " fill="#576EA1" transform="translate(368,82)"/>
<path d="M0 0 C0.33 0 0.66 0 1 0 C1.33 1.98 1.66 3.96 2 6 C2.66 6 3.32 6 4 6 C4 4.02 4 2.04 4 0 C4.33 0 4.66 0 5 0 C5.49230769 6.4 5.49230769 6.4 3 9.4375 C2.01 10.2109375 2.01 10.2109375 1 11 C-0.98362069 8.08291076 -0.9876191 6.87619096 -0.625 3.25 C-0.41875 2.1775 -0.2125 1.105 0 0 Z " fill="#7184AC" transform="translate(365,279)"/>
<path d="M0 0 C2.52588702 2.36292656 3.88820837 3.66462511 5 7 C2.69 7 0.38 7 -2 7 C-2.33 6.34 -2.66 5.68 -3 5 C-2.34 4.67 -1.68 4.34 -1 4 C-0.34786708 1.97536745 -0.34786708 1.97536745 0 0 Z " fill="#5A6FA2" transform="translate(460,250)"/>
<path d="M0 0 C0.33 0 0.66 0 1 0 C1.33 3.63 1.66 7.26 2 11 C1.01 11 0.02 11 -1 11 C-2.0257259 6.58937864 -2.03684712 4.07369424 0 0 Z " fill="#4B659B" transform="translate(318,231)"/>
<path d="M0 0 C0.33 0.66 0.66 1.32 1 2 C0.67 2.99 0.34 3.98 0 5 C1.32 5.33 2.64 5.66 4 6 C3.67 6.99 3.34 7.98 3 9 C2.67 8.67 2.34 8.34 2 8 C1.01 9.485 1.01 9.485 0 11 C0 9.68 0 8.36 0 7 C-1.98 7.99 -1.98 7.99 -4 9 C-2.80100302 5.9168649 -1.52299523 2.93720508 0 0 Z " fill="#697CAA" transform="translate(194,227)"/>
<path d="M0 0 C1.98 0 3.96 0 6 0 C6 1.32 6 2.64 6 4 C4 4.66666667 2 5.33333333 0 6 C0 4.02 0 2.04 0 0 Z " fill="#F0EEEE" transform="translate(253,230)"/>
<path d="M0 0 C0.33 0 0.66 0 1 0 C1 3.3 1 6.6 1 10 C-4.75 8.25 -4.75 8.25 -7 6 C-5.02 5.67 -3.04 5.34 -1 5 C-0.67 3.35 -0.34 1.7 0 0 Z " fill="#C7CDDB" transform="translate(305,168)"/>
<path d="M0 0 C0.33 0.66 0.66 1.32 1 2 C1.99 2.33 2.98 2.66 4 3 C3.01 3 2.02 3 1 3 C1.33 3.99 1.66 4.98 2 6 C3.65 5.67 5.3 5.34 7 5 C6.67 5.99 6.34 6.98 6 8 C4.00045254 8.04254356 1.99958364 8.04080783 0 8 C-1 7 -1 7 -1.125 4 C-1 1 -1 1 0 0 Z " fill="#505051" transform="translate(226,323)"/>
<path d="M0 0 C0.33 1.32 0.66 2.64 1 4 C0.67 4.33 0.34 4.66 0 5 C-1.69141656 4.91036938 -3.37959602 4.75422324 -5.0625 4.5625 C-6.44115234 4.40974609 -6.44115234 4.40974609 -7.84765625 4.25390625 C-8.55792969 4.17011719 -9.26820313 4.08632813 -10 4 C-10 3.67 -10 3.34 -10 3 C-5.05 1.515 -5.05 1.515 0 0 Z " fill="#4F679B" transform="translate(365,287)"/>
<path d="M0 0 C0.99 0.33 1.98 0.66 3 1 C3.33 2.98 3.66 4.96 4 7 C2.35 7 0.7 7 -1 7 C-0.67 4.69 -0.34 2.38 0 0 Z " fill="#DADDE5" transform="translate(282,278)"/>
<path d="M0 0 C1.20628008 2.33214148 2.1654738 4.49642139 3 7 C3.66 7.33 4.32 7.66 5 8 C4.01 8 3.02 8 2 8 C1.67 7.34 1.34 6.68 1 6 C0.01 7.485 0.01 7.485 -1 9 C-1.66 9 -2.32 9 -3 9 C-3.36923077 3.46153846 -3.36923077 3.46153846 -1.5 1.125 C-1.005 0.75375 -0.51 0.3825 0 0 Z " fill="#D3D7DF" transform="translate(373,276)"/>
<path d="M0 0 C1.32 0 2.64 0 4 0 C4 0.66 4 1.32 4 2 C4.66 2 5.32 2 6 2 C6 2.99 6 3.98 6 5 C5.01 4.67 4.02 4.34 3 4 C2.34 4.66 1.68 5.32 1 6 C0.34 5.67 -0.32 5.34 -1 5 C-0.67 3.35 -0.34 1.7 0 0 Z " fill="#6277A7" transform="translate(244,249)"/>
<path d="M0 0 C1.134375 0.020625 2.26875 0.04125 3.4375 0.0625 C3.4375 0.3925 3.4375 0.7225 3.4375 1.0625 C1.7875 1.3925 0.1375 1.7225 -1.5625 2.0625 C-1.5625 4.0425 -1.5625 6.0225 -1.5625 8.0625 C-2.8825 7.4025 -4.2025 6.7425 -5.5625 6.0625 C-4.48849278 0.07874549 -4.48849278 0.07874549 0 0 Z " fill="#CBD1DE" transform="translate(255.5625,228.9375)"/>
<path d="M0 0 C2.46278801 2.46278801 2.99771255 4.70676982 4 8 C2.35 8 0.7 8 -1 8 C-1.33 6.35 -1.66 4.7 -2 3 C-1.34 3 -0.68 3 0 3 C0 2.01 0 1.02 0 0 Z " fill="#6579A8" transform="translate(458,286)"/>
<path d="M0 0 C0.66 0 1.32 0 2 0 C2.33 2.31 2.66 4.62 3 7 C1.35 7 -0.3 7 -2 7 C-1.34 4.69 -0.68 2.38 0 0 Z " fill="#DDE0E6" transform="translate(450,278)"/>
<path d="M0 0 C2.5625 2.25 2.5625 2.25 5 5 C5 7.25 5 7.25 4 9 C3.01 9.33 2.02 9.66 1 10 C0.67 6.7 0.34 3.4 0 0 Z " fill="#DFE3E7" transform="translate(174,239)"/>
<path d="M0 0 C0.99 0 1.98 0 3 0 C3 3.96 3 7.92 3 12 C2.34 12 1.68 12 1 12 C0.67 8.04 0.34 4.08 0 0 Z " fill="#DBDEE5" transform="translate(239,232)"/>
<path d="M0 0 C0.33 0 0.66 0 1 0 C1.02696365 1.79158489 1.04637917 3.58328473 1.0625 5.375 C1.07410156 6.37273437 1.08570313 7.37046875 1.09765625 8.3984375 C1 11 1 11 0 13 C-2.5625 13.625 -2.5625 13.625 -5 14 C-5 13.01 -5 12.02 -5 11 C-4.03320312 10.64808594 -4.03320312 10.64808594 -3.046875 10.2890625 C-0.7922092 9.18838927 -0.7922092 9.18838927 -0.390625 6.8359375 C-0.34421875 6.02382812 -0.2978125 5.21171875 -0.25 4.375 C-0.19328125 3.55773437 -0.1365625 2.74046875 -0.078125 1.8984375 C-0.05234375 1.27195312 -0.0265625 0.64546875 0 0 Z " fill="#677BAA" transform="translate(270,120)"/>
<path d="M0 0 C0.66 0 1.32 0 2 0 C2 3.63 2 7.26 2 11 C1.01 11 0.02 11 -1 11 C-0.67 7.37 -0.34 3.74 0 0 Z " fill="#585858" transform="translate(210,320)"/>
<path d="M0 0 C1.485 0.99 1.485 0.99 3 2 C5.15274948 1.69159401 5.15274948 1.69159401 7 1 C7.33 1.66 7.66 2.32 8 3 C7.01 3 6.02 3 5 3 C5.33 3.99 5.66 4.98 6 6 C5.01 6.33 4.02 6.66 3 7 C0 3.375 0 3.375 0 0 Z " fill="#576EA1" transform="translate(407,247)"/>
<path d="M0 0 C0.66 0.33 1.32 0.66 2 1 C2.1875 3.375 2.1875 3.375 2 6 C-1.45245824 8.30163882 -2.94738713 8.34490322 -7 8 C-7.66 7.34 -8.32 6.68 -9 6 C-6.69 6.33 -4.38 6.66 -2 7 C-0.49069817 3.6136749 -0.49069817 3.6136749 0 0 Z " fill="#CCD3E0" transform="translate(257,244)"/>
<path d="M0 0 C3 0.1875 3 0.1875 5 1.1875 C5 1.8475 5 2.5075 5 3.1875 C3.906875 3.14625 2.81375 3.105 1.6875 3.0625 C-2.08892229 2.86675334 -2.08892229 2.86675334 -5 5.1875 C-5 1.00635538 -4.14539912 0.25908745 0 0 Z " fill="#5E5E60" transform="translate(427,314.8125)"/>
<path d="M0 0 C-0.33 1.65 -0.66 3.3 -1 5 C-1.99 5.33 -2.98 5.66 -4 6 C-4.66 4.35 -5.32 2.7 -6 1 C-4 0 -4 0 0 0 Z " fill="#B0AFB2" transform="translate(470,315)"/>
<path d="M0 0 C1.17571451 3.67410785 1.07366746 7.16929183 1 11 C-0.32 11 -1.64 11 -3 11 C-2.69078116 9.54096742 -2.37751201 8.08279278 -2.0625 6.625 C-1.88847656 5.81289063 -1.71445312 5.00078125 -1.53515625 4.1640625 C-1 2 -1 2 0 0 Z " fill="#6277A6" transform="translate(444,282)"/>
<path d="M0 0 C2.64 0 5.28 0 8 0 C8 0.99 8 1.98 8 3 C5.36 3 2.72 3 0 3 C0 2.01 0 1.02 0 0 Z " fill="#6075A5" transform="translate(194,281)"/>
<path d="M0 0 C0.66 0.66 1.32 1.32 2 2 C2.99 2 3.98 2 5 2 C4.34 3.65 3.68 5.3 3 7 C2.01 6.67 1.02 6.34 0 6 C-1.1875 3.4375 -1.1875 3.4375 -2 1 C-1.34 0.67 -0.68 0.34 0 0 Z " fill="#E3E6E8" transform="translate(369,273)"/>
<path d="M0 0 C-1.33488128 3.59391114 -2.96022723 6.75490696 -5 10 C-6 8 -6 8 -5.1875 4.4375 C-3.65454545 0 -3.65454545 0 0 0 Z " fill="#E3E4E7" transform="translate(280,102)"/>
<path d="M0 0 C0.5534764 2.07553648 1 3.84365964 1 6 C-0.875 8.125 -0.875 8.125 -3 10 C-3.66 10 -4.32 10 -5 10 C-3.66511872 6.40608886 -2.03977277 3.24509304 0 0 Z " fill="#6175A4" transform="translate(266,90)"/>
<path d="M0 0 C3.3 0.33 6.6 0.66 10 1 C10 1.33 10 1.66 10 2 C8.43883181 2.33951619 6.87598662 2.67132544 5.3125 3 C4.00732422 3.2784375 4.00732422 3.2784375 2.67578125 3.5625 C0.06287036 3.98972047 -2.35813038 4.07616201 -5 4 C-2 2 -2 2 0 2 C0 1.34 0 0.68 0 0 Z " fill="#E9E9E7" transform="translate(306,79)"/>
<path d="M0 0 C0.99 0 1.98 0 3 0 C2.67 1.98 2.34 3.96 2 6 C-0.97 5.505 -0.97 5.505 -4 5 C-2.1875 2.5 -2.1875 2.5 0 0 Z " fill="#747475" transform="translate(325,325)"/>
<path d="M0 0 C2.64 0 5.28 0 8 0 C8 2.31 8 4.62 8 7 C7.01 6.34 6.02 5.68 5 5 C5 4.01 5 3.02 5 2 C3.68 1.67 2.36 1.34 1 1 C0.67 1.99 0.34 2.98 0 4 C0 2.68 0 1.36 0 0 Z " fill="#CFCFD0" transform="translate(293,324)"/>
<path d="M0 0 C0.66 0 1.32 0 2 0 C2.0270043 1.45823212 2.04639787 2.91660675 2.0625 4.375 C2.07410156 5.18710937 2.08570313 5.99921875 2.09765625 6.8359375 C2 9 2 9 1 11 C0.34 11 -0.32 11 -1 11 C-0.67 7.37 -0.34 3.74 0 0 Z " fill="#4A4A4A" transform="translate(197,320)"/>
<path d="M0 0 C-0.42257276 1.4835001 -0.86356322 2.96176424 -1.3125 4.4375 C-1.55613281 5.26121094 -1.79976563 6.08492188 -2.05078125 6.93359375 C-2.36402344 7.61550781 -2.67726563 8.29742187 -3 9 C-3.99 9.33 -4.98 9.66 -6 10 C-6.33663062 6.29706315 -6.47736015 4.60465619 -4.125 1.625 C-2 0 -2 0 0 0 Z " fill="#757576" transform="translate(380,320)"/>
<path d="M0 0 C1.76462683 3.08809695 2 4.23312136 2 8 C0.35 7.67 -1.3 7.34 -3 7 C-1.125 1.125 -1.125 1.125 0 0 Z " fill="#F2F3F4" transform="translate(190,247)"/>
<path d="M0 0 C2 3 2 3 1.6875 5.1875 C1.3471875 6.5796875 1.3471875 6.5796875 1 8 C0.62390267 10.66237318 0.3168197 13.32966253 0 16 C-0.33 16 -0.66 16 -1 16 C-1.02692484 13.70839681 -1.04636124 11.41670454 -1.0625 9.125 C-1.07410156 7.84882813 -1.08570313 6.57265625 -1.09765625 5.2578125 C-1 2 -1 2 0 0 Z " fill="#6176A9" transform="translate(316,232)"/>
<path d="M0 0 C0.99 0.33 1.98 0.66 3 1 C3.33 2.98 3.66 4.96 4 7 C3.34 6.34 2.68 5.68 2 5 C-0.10820797 5.3185177 -0.10820797 5.3185177 -2 6 C-2 5.01 -2 4.02 -2 3 C-1.34 3 -0.68 3 0 3 C0 2.01 0 1.02 0 0 Z " fill="#6176A7" transform="translate(290,239)"/>
<path d="M0 0 C0.33 0 0.66 0 1 0 C1 1.65 1 3.3 1 5 C0.01 5 -0.98 5 -2 5 C-2 5.99 -2 6.98 -2 8 C-2.66 8 -3.32 8 -4 8 C-4 7.34 -4 6.68 -4 6 C-4.66 5.67 -5.32 5.34 -6 5 C-5.34 5 -4.68 5 -4 5 C-4 4.34 -4 3.68 -4 3 C-2.68 2.67 -1.36 2.34 0 2 C0 1.34 0 0.68 0 0 Z " fill="#455F97" transform="translate(457,236)"/>
<path d="M0 0 C1.33804687 0.04060547 1.33804687 0.04060547 2.703125 0.08203125 C3.37859375 0.11683594 4.0540625 0.15164062 4.75 0.1875 C4.75 0.5175 4.75 0.8475 4.75 1.1875 C2.11 1.5175 -0.53 1.8475 -3.25 2.1875 C-2.92 2.8475 -2.59 3.5075 -2.25 4.1875 C-4.56 3.8575 -6.87 3.5275 -9.25 3.1875 C-6.10408067 0.38704377 -4.182936 -0.16511589 0 0 Z " fill="#6C7FAD" transform="translate(331.25,223.8125)"/>
<path d="M0 0 C0.66 0 1.32 0 2 0 C2 1.32 2 2.64 2 4 C2.99 4.33 3.98 4.66 5 5 C4.01 5 3.02 5 2 5 C1.67 5.99 1.34 6.98 1 8 C0.01 8.495 0.01 8.495 -1 9 C-1.33 7.35 -1.66 5.7 -2 4 C-1.34 4 -0.68 4 0 4 C0 2.68 0 1.36 0 0 Z " fill="#5F5F5F" transform="translate(218,316)"/>
<path d="M0 0 C-0.33 1.65 -0.66 3.3 -1 5 C-1.33 3.68 -1.66 2.36 -2 1 C-3.65 1.66 -5.3 2.32 -7 3 C-7.33 2.01 -7.66 1.02 -8 0 C-5.13822943 -1.43088528 -3.06624227 -0.59991697 0 0 Z " fill="#D1D6DD" transform="translate(384,285)"/>
<path d="M0 0 C0.99 0.33 1.98 0.66 3 1 C3 1.99 3 2.98 3 4 C2.34 4 1.68 4 1 4 C0.67 5.65 0.34 7.3 0 9 C-1.65 8.67 -3.3 8.34 -5 8 C-5 7.67 -5 7.34 -5 7 C-3.35 7 -1.7 7 0 7 C0 4.69 0 2.38 0 0 Z " fill="#466098" transform="translate(384,284)"/>
<path d="M0 0 C0.66 1.32 1.32 2.64 2 4 C1.01 4 0.02 4 -1 4 C-1 5.32 -1 6.64 -1 8 C-3.31 8 -5.62 8 -8 8 C-7.67 7.34 -7.34 6.68 -7 6 C-5.35 6.33 -3.7 6.66 -2 7 C-2.33 5.35 -2.66 3.7 -3 2 C-2.34 2 -1.68 2 -1 2 C-0.67 1.34 -0.34 0.68 0 0 Z " fill="#7F90B6" transform="translate(288,278)"/>
<path d="M0 0 C0.33 0 0.66 0 1 0 C1 1.65 1 3.3 1 5 C1.66 5 2.32 5 3 5 C2.67 6.98 2.34 8.96 2 11 C1.67 10.34 1.34 9.68 1 9 C0.01 8.67 -0.98 8.34 -2 8 C-1.34 5.36 -0.68 2.72 0 0 Z " fill="#DADDE4" transform="translate(268,275)"/>
<path d="M0 0 C0.99 0 1.98 0 3 0 C4.10844919 3.32534757 3.84454356 5.62182575 3 9 C2.34 8.01 1.68 7.02 1 6 C0.34 5.67 -0.32 5.34 -1 5 C-0.67 3.35 -0.34 1.7 0 0 Z " fill="#546A9F" transform="translate(456,232)"/>
<path d="M0 0 C1.98 0.99 1.98 0.99 4 2 C3.67 2.66 3.34 3.32 3 4 C2.77532169 5.53668865 2.59203195 7.07968054 2.4375 8.625 C2.35371094 9.44226563 2.26992188 10.25953125 2.18359375 11.1015625 C2.12300781 11.72804687 2.06242187 12.35453125 2 13 C1.67 13 1.34 13 1 13 C0.67 8.71 0.34 4.42 0 0 Z " fill="#5A70A4" transform="translate(319,231)"/>
<path d="M0 0 C0.33 0 0.66 0 1 0 C1.33 1.98 1.66 3.96 2 6 C1.34 6 0.68 6 0 6 C0 4.02 0 2.04 0 0 Z M2 0 C2.99 0 3.98 0 5 0 C5 1.98 5 3.96 5 6 C4.01 5.67 3.02 5.34 2 5 C2 3.35 2 1.7 2 0 Z " fill="#CCCCCE" transform="translate(443,320)"/>
<path d="M0 0 C0 1.32 0 2.64 0 4 C-0.66 4 -1.32 4 -2 4 C-2 4.66 -2 5.32 -2 6 C-2.99 6 -3.98 6 -5 6 C-5 4.68 -5 3.36 -5 2 C-2 0 -2 0 0 0 Z " fill="#526BA0" transform="translate(194,234)"/>
<path d="M0 0 C1.485 0.99 1.485 0.99 3 2 C2.67 3.65 2.34 5.3 2 7 C1.34 7 0.68 7 0 7 C-0.33 7.66 -0.66 8.32 -1 9 C-1.09765625 2.84765625 -1.09765625 2.84765625 -1 1 C-0.67 0.67 -0.34 0.34 0 0 Z " fill="#DDC462" transform="translate(327,167)"/>
<path d="M0 0 C2.64 0 5.28 0 8 0 C7.360625 0.350625 6.72125 0.70125 6.0625 1.0625 C3.17836168 3.77184206 3.2899178 6.15858911 3 10 C2.67 10 2.34 10 2 10 C2 7.03 2 4.06 2 1 C1.34 0.67 0.68 0.34 0 0 Z " fill="#CDCDCD" transform="translate(210,319)"/>
<path d="M0 0 C1.98 0.99 1.98 0.99 4 2 C4 2.99 4 3.98 4 5 C3.01 4.67 2.02 4.34 1 4 C1 5.65 1 7.3 1 9 C0.67 9 0.34 9 0 9 C0 6.03 0 3.06 0 0 Z " fill="#DCDFE3" transform="translate(258,285)"/>
<path d="M0 0 C1.70840281 1.63412443 2.93453047 2.86906094 4 5 C4.99 5.66 5.98 6.32 7 7 C5.02 7 3.04 7 1 7 C0.67 4.69 0.34 2.38 0 0 Z " fill="#455E96" transform="translate(375,276)"/>
<path d="M0 0 C1.65 0 3.3 0 5 0 C4.67 1.32 4.34 2.64 4 4 C4.66 4.33 5.32 4.66 6 5 C5.34 5.66 4.68 6.32 4 7 C2 5.1875 2 5.1875 0 3 C0 2.01 0 1.02 0 0 Z " fill="#E0E2E4" transform="translate(382,276)"/>
<path d="M0 0 C0.99 0 1.98 0 3 0 C3.33 2.31 3.66 4.62 4 7 C3.01 7.33 2.02 7.66 1 8 C0.67 5.36 0.34 2.72 0 0 Z " fill="#455E97" transform="translate(365,278)"/>
<path d="M0 0 C1.32 0 2.64 0 4 0 C4.99 1.98 5.98 3.96 7 6 C5 6 5 6 3.375 4.5 C2.92125 4.005 2.4675 3.51 2 3 C1.67 3.66 1.34 4.32 1 5 C0.67 3.35 0.34 1.7 0 0 Z " fill="#5F75A6" transform="translate(210,272)"/>
<path d="M0 0 C0.82638376 2.89234315 1 4.88742431 1 8 C-0.32 7.67 -1.64 7.34 -3 7 C-3 3 -3 3 -1.5 1.25 C-1.005 0.8375 -0.51 0.425 0 0 Z " fill="#4C649D" transform="translate(186,244)"/>
<path d="M0 0 C0.66 0 1.32 0 2 0 C2 1.32 2 2.64 2 4 C2.66 4.33 3.32 4.66 4 5 C3.34 5.66 2.68 6.32 2 7 C1.01 6.67 0.02 6.34 -1 6 C-0.67 4.02 -0.34 2.04 0 0 Z " fill="#4A659D" transform="translate(209,234)"/>
<path d="M0 0 C0.33 0 0.66 0 1 0 C1 1.98 1 3.96 1 6 C0.34 6 -0.32 6 -1 6 C-1.33 6.66 -1.66 7.32 -2 8 C-2.66 8 -3.32 8 -4 8 C-2.87548273 5.0280615 -1.77706209 2.66559313 0 0 Z " fill="#6679A2" transform="translate(367,152)"/>
<path d="M0 0 C-0.33 0.99 -0.66 1.98 -1 3 C-3.0625 3.6875 -3.0625 3.6875 -5 4 C-5.33 2.68 -5.66 1.36 -6 0 C-2.25 -1.125 -2.25 -1.125 0 0 Z " fill="#DCDCDD" transform="translate(233,326)"/>
<path d="M0 0 C0.66 0.99 1.32 1.98 2 3 C-0.31 3.33 -2.62 3.66 -5 4 C-5 3.01 -5 2.02 -5 1 C-3.35 0.67 -1.7 0.34 0 0 Z " fill="#E1E1E2" transform="translate(314,325)"/>
<path d="M0 0 C0.66 0 1.32 0 2 0 C1.67 3.63 1.34 7.26 1 11 C-1.26609984 6.46780033 -0.92735976 4.82227075 0 0 Z " fill="#5B5B5B" transform="translate(192,315)"/>
<path d="M0 0 C0.93423645 3.01031744 1.04449911 3.86650268 0 7 C-0.99 7 -1.98 7 -3 7 C-3.33 6.01 -3.66 5.02 -4 4 C-2.68 2.68 -1.36 1.36 0 0 Z " fill="#D7DAE1" transform="translate(368,288)"/>
<path d="M0 0 C0 2.31 0 4.62 0 7 C-0.99 7 -1.98 7 -3 7 C-3 5.02 -3 3.04 -3 1 C-1 0 -1 0 0 0 Z " fill="#48609A" transform="translate(396,286)"/>
<path d="M0 0 C3.625 0.375 3.625 0.375 7 1 C6.34 1.66 5.68 2.32 5 3 C1.375 2.625 1.375 2.625 -2 2 C-1.34 1.34 -0.68 0.68 0 0 Z " fill="#D2D7DF" transform="translate(356,275)"/>
<path d="M0 0 C1.32 1.65 2.64 3.3 4 5 C3.67 5.66 3.34 6.32 3 7 C2.01 6.34 1.02 5.68 0 5 C-0.99 5.495 -0.99 5.495 -2 6 C-1.34 4.02 -0.68 2.04 0 0 Z " fill="#7485B0" transform="translate(281,272)"/>
<path d="M0 0 C0.66 0.99 1.32 1.98 2 3 C1.34 3 0.68 3 0 3 C0.33 4.32 0.66 5.64 1 7 C-0.98 7.99 -0.98 7.99 -3 9 C-2.44271087 5.65626525 -1.64826111 2.96687001 0 0 Z " fill="#5B71A2" transform="translate(274,238)"/>
<path d="M0 0 C0 1.32 0 2.64 0 4 C-1.65 4 -3.3 4 -5 4 C-5 3.01 -5 2.02 -5 1 C-3 0 -3 0 0 0 Z " fill="#466096" transform="translate(255,225)"/>
<path d="M0 0 C0.66 1.32 1.32 2.64 2 4 C1.01 4.33 0.02 4.66 -1 5 C-1.66 5.66 -2.32 6.32 -3 7 C-3.66 6.34 -4.32 5.68 -5 5 C-4.34 5 -3.68 5 -3 5 C-2.5359375 4.0409375 -2.5359375 4.0409375 -2.0625 3.0625 C-1 1 -1 1 0 0 Z " fill="#D5D9DF" transform="translate(373,171)"/>
<path d="M0 0 C0.66 0.33 1.32 0.66 2 1 C1.67 2.32 1.34 3.64 1 5 C0.34 5 -0.32 5 -1 5 C-1.33 5.66 -1.66 6.32 -2 7 C-2.99 6.34 -3.98 5.68 -5 5 C-3.35 3.35 -1.7 1.7 0 0 Z " fill="#6479A7" transform="translate(277,77)"/>
<path d="M0 0 C0.99 0 1.98 0 3 0 C3 3.3 3 6.6 3 10 C2.34 9.67 1.68 9.34 1 9 C0.5859375 6.93359375 0.5859375 6.93359375 0.375 4.4375 C0.30023438 3.61121094 0.22546875 2.78492188 0.1484375 1.93359375 C0.09945312 1.29550781 0.05046875 0.65742188 0 0 Z " fill="#DFE0E5" transform="translate(163,277)"/>
<path d="M0 0 C-0.66 1.65 -1.32 3.3 -2 5 C-3.65 3.35 -5.3 1.7 -7 0 C-3.86650268 -1.04449911 -3.01031744 -0.93423645 0 0 Z " fill="#E1E3E9" transform="translate(241,227)"/>
<path d="M0 0 C1.98 0 3.96 0 6 0 C6 0.66 6 1.32 6 2 C5.01 2 4.02 2 3 2 C3 2.66 3 3.32 3 4 C1.68 3.67 0.36 3.34 -1 3 C-0.67 2.01 -0.34 1.02 0 0 Z " fill="#677DAA" transform="translate(196,224)"/>
<path d="M0 0 C1.42372881 5.69491525 1.42372881 5.69491525 1 9 C-0.32 9.99 -1.64 10.98 -3 12 C-2.01 8.04 -1.02 4.08 0 0 Z " fill="#BFC7D6" transform="translate(386,144)"/>
<path d="M0 0 C2.79872437 2.52788007 4.45773019 4.20411134 5 8 C2.00675737 6.9024777 1.15389099 6.32317108 -0.25 3.375 C-0.4975 2.59125 -0.745 1.8075 -1 1 C-0.67 0.67 -0.34 0.34 0 0 Z " fill="#6578A8" transform="translate(274,149)"/>
<path d="M0 0 C1 2 1 2 0.25 5.0625 C-0.1625 6.031875 -0.575 7.00125 -1 8 C-1.99 8.33 -2.98 8.66 -4 9 C-2.94124926 5.59687262 -1.99097846 2.98646769 0 0 Z " fill="#E4D495" transform="translate(332,145)"/>
<path d="M0 0 C0.66 0 1.32 0 2 0 C2 0.66 2 1.32 2 2 C2.66 2 3.32 2 4 2 C4 3.65 4 5.3 4 7 C2.68 6.34 1.36 5.68 0 5 C0 3.35 0 1.7 0 0 Z " fill="#EEEEEE" transform="translate(220,322)"/>
<path d="M0 0 C1.0625 1.8125 1.0625 1.8125 2 4 C1 7 1 7 -2 9 C-2.66 8.34 -3.32 7.68 -4 7 C-3.525625 6.5875 -3.05125 6.175 -2.5625 5.75 C-0.83733482 3.817815 -0.43415125 2.51807725 0 0 Z " fill="#D9DDE2" transform="translate(388,285)"/>
<path d="M0 0 C0.66 0 1.32 0 2 0 C0.25 4.875 0.25 4.875 -2 6 C-2.66 5.67 -3.32 5.34 -4 5 C-4 4.01 -4 3.02 -4 2 C-2 3 -2 3 -1 4 C-0.67 2.68 -0.34 1.36 0 0 Z " fill="#6579A9" transform="translate(266,279)"/>
<path d="M0 0 C1.32 0 2.64 0 4 0 C4 1.65 4 3.3 4 5 C2.68 5 1.36 5 0 5 C0 3.35 0 1.7 0 0 Z " fill="#EFEEED" transform="translate(259,276)"/>
<path d="M0 0 C0.99 0.33 1.98 0.66 3 1 C2.01 2.485 2.01 2.485 1 4 C-1.3828125 4.29296875 -1.3828125 4.29296875 -4.125 4.1875 C-5.03507813 4.16042969 -5.94515625 4.13335937 -6.8828125 4.10546875 C-7.58148438 4.07066406 -8.28015625 4.03585937 -9 4 C-9 3.67 -9 3.34 -9 3 C-6.03 3 -3.06 3 0 3 C0 2.01 0 1.02 0 0 Z " fill="#E1E4EA" transform="translate(248,272)"/>
<path d="M0 0 C1.98 0 3.96 0 6 0 C6 0.66 6 1.32 6 2 C1.545 2.495 1.545 2.495 -3 3 C-2.01 2.67 -1.02 2.34 0 2 C0 1.34 0 0.68 0 0 Z " fill="#445F99" transform="translate(173,272)"/>
<path d="M0 0 C0.66 0.33 1.32 0.66 2 1 C0.71034824 2.37562854 -0.62689293 3.70766393 -2 5 C-2.66 5 -3.32 5 -4 5 C-4.33 5.99 -4.66 6.98 -5 8 C-4.64950425 4.75791433 -4.43778819 3.38472296 -1.9375 1.1875 C-1.298125 0.795625 -0.65875 0.40375 0 0 Z " fill="#CCD2DE" transform="translate(219,230)"/>
<path d="M0 0 C0.66 0.33 1.32 0.66 2 1 C2 1.66 2 2.32 2 3 C0.37373596 4.38232443 -1.2925002 5.71937515 -3 7 C-3.33 6.01 -3.66 5.02 -4 4 C-2.68 2.68 -1.36 1.36 0 0 Z " fill="#E3E6E7" transform="translate(246,224)"/>
<path d="M0 0 C1.65 1.65 3.3 3.3 5 5 C4.01 6.485 4.01 6.485 3 8 C2.67 7.01 2.34 6.02 2 5 C1.34 5 0.68 5 0 5 C0 3.35 0 1.7 0 0 Z " fill="#5870A3" transform="translate(281,160)"/>
<path d="M0 0 C0 3 0 3 -2 5.1875 C-2.66 5.785625 -3.32 6.38375 -4 7 C-4.66 6.34 -5.32 5.68 -6 5 C-5.34 5 -4.68 5 -4 5 C-4 4.34 -4 3.68 -4 3 C-2 1.375 -2 1.375 0 0 Z " fill="#EAE4C9" transform="translate(308,112)"/>
<path d="M0 0 C0.99 0.66 1.98 1.32 3 2 C1.625 4 1.625 4 0 6 C-0.66 6 -1.32 6 -2 6 C-1.125 1.125 -1.125 1.125 0 0 Z " fill="#E5E7E9" transform="translate(266,85)"/>
</svg>
